<svg xmlns="http://www.w3.org/2000/svg" width="1640" height="990" style="font-family:monospace">
<rect width="1640" height="990" fill="#f8f9fa"/>
<defs>
  <marker id="arr" markerWidth="6" markerHeight="6"           refX="5" refY="3" orient="auto">
    <path d="M0,0 L6,3 L0,6 Z" fill="context-stroke"/>
  </marker>
</defs>
<line x1="-30" y1="0" x2="-30" y2="990" stroke="#e0e0e0" stroke-width="0.5"/>
<line x1="20" y1="0" x2="20" y2="990" stroke="#e0e0e0" stroke-width="0.5"/>
<line x1="70" y1="0" x2="70" y2="990" stroke="#e0e0e0" stroke-width="0.5"/>
<line x1="120" y1="0" x2="120" y2="990" stroke="#e0e0e0" stroke-width="0.5"/>
<line x1="170" y1="0" x2="170" y2="990" stroke="#e0e0e0" stroke-width="0.5"/>
<line x1="220" y1="0" x2="220" y2="990" stroke="#e0e0e0" stroke-width="0.5"/>
<line x1="270" y1="0" x2="270" y2="990" stroke="#e0e0e0" stroke-width="0.5"/>
<line x1="320" y1="0" x2="320" y2="990" stroke="#e0e0e0" stroke-width="0.5"/>
<line x1="370" y1="0" x2="370" y2="990" stroke="#e0e0e0" stroke-width="0.5"/>
<line x1="420" y1="0" x2="420" y2="990" stroke="#e0e0e0" stroke-width="0.5"/>
<line x1="470" y1="0" x2="470" y2="990" stroke="#e0e0e0" stroke-width="0.5"/>
<line x1="520" y1="0" x2="520" y2="990" stroke="#e0e0e0" stroke-width="0.5"/>
<line x1="570" y1="0" x2="570" y2="990" stroke="#e0e0e0" stroke-width="0.5"/>
<line x1="620" y1="0" x2="620" y2="990" stroke="#e0e0e0" stroke-width="0.5"/>
<line x1="670" y1="0" x2="670" y2="990" stroke="#e0e0e0" stroke-width="0.5"/>
<line x1="720" y1="0" x2="720" y2="990" stroke="#e0e0e0" stroke-width="0.5"/>
<line x1="770" y1="0" x2="770" y2="990" stroke="#e0e0e0" stroke-width="0.5"/>
<line x1="820" y1="0" x2="820" y2="990" stroke="#e0e0e0" stroke-width="0.5"/>
<line x1="870" y1="0" x2="870" y2="990" stroke="#e0e0e0" stroke-width="0.5"/>
<line x1="920" y1="0" x2="920" y2="990" stroke="#e0e0e0" stroke-width="0.5"/>
<line x1="970" y1="0" x2="970" y2="990" stroke="#e0e0e0" stroke-width="0.5"/>
<line x1="1020" y1="0" x2="1020" y2="990" stroke="#e0e0e0" stroke-width="0.5"/>
<line x1="1070" y1="0" x2="1070" y2="990" stroke="#e0e0e0" stroke-width="0.5"/>
<line x1="1120" y1="0" x2="1120" y2="990" stroke="#e0e0e0" stroke-width="0.5"/>
<line x1="1170" y1="0" x2="1170" y2="990" stroke="#e0e0e0" stroke-width="0.5"/>
<line x1="1220" y1="0" x2="1220" y2="990" stroke="#e0e0e0" stroke-width="0.5"/>
<line x1="1270" y1="0" x2="1270" y2="990" stroke="#e0e0e0" stroke-width="0.5"/>
<line x1="1320" y1="0" x2="1320" y2="990" stroke="#e0e0e0" stroke-width="0.5"/>
<line x1="1370" y1="0" x2="1370" y2="990" stroke="#e0e0e0" stroke-width="0.5"/>
<line x1="1420" y1="0" x2="1420" y2="990" stroke="#e0e0e0" stroke-width="0.5"/>
<line x1="1470" y1="0" x2="1470" y2="990" stroke="#e0e0e0" stroke-width="0.5"/>
<line x1="1520" y1="0" x2="1520" y2="990" stroke="#e0e0e0" stroke-width="0.5"/>
<line x1="1570" y1="0" x2="1570" y2="990" stroke="#e0e0e0" stroke-width="0.5"/>
<line x1="1620" y1="0" x2="1620" y2="990" stroke="#e0e0e0" stroke-width="0.5"/>
<line x1="0" y1="-30" x2="1640" y2="-30" stroke="#e0e0e0" stroke-width="0.5"/>
<line x1="0" y1="20" x2="1640" y2="20" stroke="#e0e0e0" stroke-width="0.5"/>
<line x1="0" y1="70" x2="1640" y2="70" stroke="#e0e0e0" stroke-width="0.5"/>
<line x1="0" y1="120" x2="1640" y2="120" stroke="#e0e0e0" stroke-width="0.5"/>
<line x1="0" y1="170" x2="1640" y2="170" stroke="#e0e0e0" stroke-width="0.5"/>
<line x1="0" y1="220" x2="1640" y2="220" stroke="#e0e0e0" stroke-width="0.5"/>
<line x1="0" y1="270" x2="1640" y2="270" stroke="#e0e0e0" stroke-width="0.5"/>
<line x1="0" y1="320" x2="1640" y2="320" stroke="#e0e0e0" stroke-width="0.5"/>
<line x1="0" y1="370" x2="1640" y2="370" stroke="#e0e0e0" stroke-width="0.5"/>
<line x1="0" y1="420" x2="1640" y2="420" stroke="#e0e0e0" stroke-width="0.5"/>
<line x1="0" y1="470" x2="1640" y2="470" stroke="#e0e0e0" stroke-width="0.5"/>
<line x1="0" y1="520" x2="1640" y2="520" stroke="#e0e0e0" stroke-width="0.5"/>
<line x1="0" y1="570" x2="1640" y2="570" stroke="#e0e0e0" stroke-width="0.5"/>
<line x1="0" y1="620" x2="1640" y2="620" stroke="#e0e0e0" stroke-width="0.5"/>
<line x1="0" y1="670" x2="1640" y2="670" stroke="#e0e0e0" stroke-width="0.5"/>
<line x1="0" y1="720" x2="1640" y2="720" stroke="#e0e0e0" stroke-width="0.5"/>
<line x1="0" y1="770" x2="1640" y2="770" stroke="#e0e0e0" stroke-width="0.5"/>
<line x1="0" y1="820" x2="1640" y2="820" stroke="#e0e0e0" stroke-width="0.5"/>
<line x1="0" y1="870" x2="1640" y2="870" stroke="#e0e0e0" stroke-width="0.5"/>
<line x1="0" y1="920" x2="1640" y2="920" stroke="#e0e0e0" stroke-width="0.5"/>
<line x1="0" y1="970" x2="1640" y2="970" stroke="#e0e0e0" stroke-width="0.5"/>
<rect x="16.0" y="16.0" width="108.0" height="58.0" rx="2" fill="none" stroke="#7fb3d3" stroke-width="1" opacity="0.5" stroke-dasharray="3,2"/>
<rect x="20.0" y="20.0" width="100.0" height="50.0" rx="2" fill="#aec6e8" stroke="#5b9bd5" stroke-width="1.5" opacity="0.85" />
<text x="70.0" y="48.0" font-size="8" fill="#1a5276" text-anchor="middle">0</text>
<rect x="266.0" y="16.0" width="108.0" height="58.0" rx="2" fill="none" stroke="#7fb3d3" stroke-width="1" opacity="0.5" stroke-dasharray="3,2"/>
<rect x="270.0" y="20.0" width="100.0" height="50.0" rx="2" fill="#aec6e8" stroke="#5b9bd5" stroke-width="1.5" opacity="0.85" />
<text x="320.0" y="48.0" font-size="8" fill="#1a5276" text-anchor="middle">1</text>
<rect x="516.0" y="16.0" width="108.0" height="58.0" rx="2" fill="none" stroke="#7fb3d3" stroke-width="1" opacity="0.5" stroke-dasharray="3,2"/>
<rect x="520.0" y="20.0" width="100.0" height="50.0" rx="2" fill="#aec6e8" stroke="#5b9bd5" stroke-width="1.5" opacity="0.85" />
<text x="570.0" y="48.0" font-size="8" fill="#1a5276" text-anchor="middle">2</text>
<rect x="766.0" y="16.0" width="108.0" height="58.0" rx="2" fill="none" stroke="#7fb3d3" stroke-width="1" opacity="0.5" stroke-dasharray="3,2"/>
<rect x="770.0" y="20.0" width="100.0" height="50.0" rx="2" fill="#aec6e8" stroke="#5b9bd5" stroke-width="1.5" opacity="0.85" />
<text x="820.0" y="48.0" font-size="8" fill="#1a5276" text-anchor="middle">3</text>
<rect x="1016.0" y="16.0" width="108.0" height="58.0" rx="2" fill="none" stroke="#7fb3d3" stroke-width="1" opacity="0.5" stroke-dasharray="3,2"/>
<rect x="1020.0" y="20.0" width="100.0" height="50.0" rx="2" fill="#aec6e8" stroke="#5b9bd5" stroke-width="1.5" opacity="0.85" />
<text x="1070.0" y="48.0" font-size="8" fill="#1a5276" text-anchor="middle">4</text>
<rect x="1266.0" y="16.0" width="108.0" height="58.0" rx="2" fill="none" stroke="#7fb3d3" stroke-width="1" opacity="0.5" stroke-dasharray="3,2"/>
<rect x="1270.0" y="20.0" width="100.0" height="50.0" rx="2" fill="#aec6e8" stroke="#5b9bd5" stroke-width="1.5" opacity="0.85" />
<text x="1320.0" y="48.0" font-size="8" fill="#1a5276" text-anchor="middle">5</text>
<rect x="1516.0" y="16.0" width="108.0" height="58.0" rx="2" fill="none" stroke="#7fb3d3" stroke-width="1" opacity="0.5" stroke-dasharray="3,2"/>
<rect x="1520.0" y="20.0" width="100.0" height="50.0" rx="2" fill="#aec6e8" stroke="#5b9bd5" stroke-width="1.5" opacity="0.85" />
<text x="1570.0" y="48.0" font-size="8" fill="#1a5276" text-anchor="middle">6</text>
<rect x="16.0" y="166.0" width="108.0" height="58.0" rx="2" fill="none" stroke="#7fb3d3" stroke-width="1" opacity="0.5" stroke-dasharray="3,2"/>
<rect x="20.0" y="170.0" width="100.0" height="50.0" rx="2" fill="#aec6e8" stroke="#5b9bd5" stroke-width="1.5" opacity="0.85" />
<text x="70.0" y="198.0" font-size="8" fill="#1a5276" text-anchor="middle">7</text>
<rect x="266.0" y="166.0" width="108.0" height="58.0" rx="2" fill="none" stroke="#7fb3d3" stroke-width="1" opacity="0.5" stroke-dasharray="3,2"/>
<rect x="270.0" y="170.0" width="100.0" height="50.0" rx="2" fill="#aec6e8" stroke="#5b9bd5" stroke-width="1.5" opacity="0.85" />
<text x="320.0" y="198.0" font-size="8" fill="#1a5276" text-anchor="middle">8</text>
<rect x="516.0" y="166.0" width="108.0" height="58.0" rx="2" fill="none" stroke="#7fb3d3" stroke-width="1" opacity="0.5" stroke-dasharray="3,2"/>
<rect x="520.0" y="170.0" width="100.0" height="50.0" rx="2" fill="#aec6e8" stroke="#5b9bd5" stroke-width="1.5" opacity="0.85" />
<text x="570.0" y="198.0" font-size="8" fill="#1a5276" text-anchor="middle">9</text>
<rect x="766.0" y="166.0" width="108.0" height="58.0" rx="2" fill="none" stroke="#7fb3d3" stroke-width="1" opacity="0.5" stroke-dasharray="3,2"/>
<rect x="770.0" y="170.0" width="100.0" height="50.0" rx="2" fill="#aec6e8" stroke="#5b9bd5" stroke-width="1.5" opacity="0.85" />
<text x="820.0" y="198.0" font-size="8" fill="#1a5276" text-anchor="middle">10</text>
<rect x="1016.0" y="166.0" width="108.0" height="58.0" rx="2" fill="none" stroke="#7fb3d3" stroke-width="1" opacity="0.5" stroke-dasharray="3,2"/>
<rect x="1020.0" y="170.0" width="100.0" height="50.0" rx="2" fill="#aec6e8" stroke="#5b9bd5" stroke-width="1.5" opacity="0.85" />
<text x="1070.0" y="198.0" font-size="8" fill="#1a5276" text-anchor="middle">11</text>
<rect x="1266.0" y="166.0" width="108.0" height="58.0" rx="2" fill="none" stroke="#7fb3d3" stroke-width="1" opacity="0.5" stroke-dasharray="3,2"/>
<rect x="1270.0" y="170.0" width="100.0" height="50.0" rx="2" fill="#aec6e8" stroke="#5b9bd5" stroke-width="1.5" opacity="0.85" />
<text x="1320.0" y="198.0" font-size="8" fill="#1a5276" text-anchor="middle">12</text>
<rect x="1516.0" y="166.0" width="108.0" height="58.0" rx="2" fill="none" stroke="#7fb3d3" stroke-width="1" opacity="0.5" stroke-dasharray="3,2"/>
<rect x="1520.0" y="170.0" width="100.0" height="50.0" rx="2" fill="#aec6e8" stroke="#5b9bd5" stroke-width="1.5" opacity="0.85" />
<text x="1570.0" y="198.0" font-size="8" fill="#1a5276" text-anchor="middle">13</text>
<rect x="16.0" y="316.0" width="108.0" height="58.0" rx="2" fill="none" stroke="#7fb3d3" stroke-width="1" opacity="0.5" stroke-dasharray="3,2"/>
<rect x="20.0" y="320.0" width="100.0" height="50.0" rx="2" fill="#aec6e8" stroke="#5b9bd5" stroke-width="1.5" opacity="0.85" />
<text x="70.0" y="348.0" font-size="8" fill="#1a5276" text-anchor="middle">14</text>
<rect x="266.0" y="316.0" width="108.0" height="58.0" rx="2" fill="none" stroke="#7fb3d3" stroke-width="1" opacity="0.5" stroke-dasharray="3,2"/>
<rect x="270.0" y="320.0" width="100.0" height="50.0" rx="2" fill="#aec6e8" stroke="#5b9bd5" stroke-width="1.5" opacity="0.85" />
<text x="320.0" y="348.0" font-size="8" fill="#1a5276" text-anchor="middle">15</text>
<rect x="516.0" y="316.0" width="108.0" height="58.0" rx="2" fill="none" stroke="#7fb3d3" stroke-width="1" opacity="0.5" stroke-dasharray="3,2"/>
<rect x="520.0" y="320.0" width="100.0" height="50.0" rx="2" fill="#aec6e8" stroke="#5b9bd5" stroke-width="1.5" opacity="0.85" />
<text x="570.0" y="348.0" font-size="8" fill="#1a5276" text-anchor="middle">16</text>
<rect x="766.0" y="316.0" width="108.0" height="58.0" rx="2" fill="none" stroke="#7fb3d3" stroke-width="1" opacity="0.5" stroke-dasharray="3,2"/>
<rect x="770.0" y="320.0" width="100.0" height="50.0" rx="2" fill="#aec6e8" stroke="#5b9bd5" stroke-width="1.5" opacity="0.85" />
<text x="820.0" y="348.0" font-size="8" fill="#1a5276" text-anchor="middle">17</text>
<rect x="1016.0" y="316.0" width="108.0" height="58.0" rx="2" fill="none" stroke="#7fb3d3" stroke-width="1" opacity="0.5" stroke-dasharray="3,2"/>
<rect x="1020.0" y="320.0" width="100.0" height="50.0" rx="2" fill="#aec6e8" stroke="#5b9bd5" stroke-width="1.5" opacity="0.85" />
<text x="1070.0" y="348.0" font-size="8" fill="#1a5276" text-anchor="middle">18</text>
<rect x="1266.0" y="316.0" width="108.0" height="58.0" rx="2" fill="none" stroke="#7fb3d3" stroke-width="1" opacity="0.5" stroke-dasharray="3,2"/>
<rect x="1270.0" y="320.0" width="100.0" height="50.0" rx="2" fill="#aec6e8" stroke="#5b9bd5" stroke-width="1.5" opacity="0.85" />
<text x="1320.0" y="348.0" font-size="8" fill="#1a5276" text-anchor="middle">19</text>
<rect x="1516.0" y="316.0" width="108.0" height="58.0" rx="2" fill="none" stroke="#7fb3d3" stroke-width="1" opacity="0.5" stroke-dasharray="3,2"/>
<rect x="1520.0" y="320.0" width="100.0" height="50.0" rx="2" fill="#aec6e8" stroke="#5b9bd5" stroke-width="1.5" opacity="0.85" />
<text x="1570.0" y="348.0" font-size="8" fill="#1a5276" text-anchor="middle">20</text>
<rect x="16.0" y="466.0" width="108.0" height="58.0" rx="2" fill="none" stroke="#7fb3d3" stroke-width="1" opacity="0.5" stroke-dasharray="3,2"/>
<rect x="20.0" y="470.0" width="100.0" height="50.0" rx="2" fill="#aec6e8" stroke="#5b9bd5" stroke-width="1.5" opacity="0.85" />
<text x="70.0" y="498.0" font-size="8" fill="#1a5276" text-anchor="middle">21</text>
<rect x="266.0" y="466.0" width="108.0" height="58.0" rx="2" fill="none" stroke="#7fb3d3" stroke-width="1" opacity="0.5" stroke-dasharray="3,2"/>
<rect x="270.0" y="470.0" width="100.0" height="50.0" rx="2" fill="#aec6e8" stroke="#5b9bd5" stroke-width="1.5" opacity="0.85" />
<text x="320.0" y="498.0" font-size="8" fill="#1a5276" text-anchor="middle">22</text>
<rect x="516.0" y="466.0" width="108.0" height="58.0" rx="2" fill="none" stroke="#7fb3d3" stroke-width="1" opacity="0.5" stroke-dasharray="3,2"/>
<rect x="520.0" y="470.0" width="100.0" height="50.0" rx="2" fill="#aec6e8" stroke="#5b9bd5" stroke-width="1.5" opacity="0.85" />
<text x="570.0" y="498.0" font-size="8" fill="#1a5276" text-anchor="middle">23</text>
<rect x="766.0" y="466.0" width="108.0" height="58.0" rx="2" fill="none" stroke="#7fb3d3" stroke-width="1" opacity="0.5" stroke-dasharray="3,2"/>
<rect x="770.0" y="470.0" width="100.0" height="50.0" rx="2" fill="#aec6e8" stroke="#5b9bd5" stroke-width="1.5" opacity="0.85" />
<text x="820.0" y="498.0" font-size="8" fill="#1a5276" text-anchor="middle">24</text>
<rect x="1016.0" y="466.0" width="108.0" height="58.0" rx="2" fill="none" stroke="#7fb3d3" stroke-width="1" opacity="0.5" stroke-dasharray="3,2"/>
<rect x="1020.0" y="470.0" width="100.0" height="50.0" rx="2" fill="#aec6e8" stroke="#5b9bd5" stroke-width="1.5" opacity="0.85" />
<text x="1070.0" y="498.0" font-size="8" fill="#1a5276" text-anchor="middle">25</text>
<rect x="1266.0" y="466.0" width="108.0" height="58.0" rx="2" fill="none" stroke="#7fb3d3" stroke-width="1" opacity="0.5" stroke-dasharray="3,2"/>
<rect x="1270.0" y="470.0" width="100.0" height="50.0" rx="2" fill="#aec6e8" stroke="#5b9bd5" stroke-width="1.5" opacity="0.85" />
<text x="1320.0" y="498.0" font-size="8" fill="#1a5276" text-anchor="middle">26</text>
<rect x="1516.0" y="466.0" width="108.0" height="58.0" rx="2" fill="none" stroke="#7fb3d3" stroke-width="1" opacity="0.5" stroke-dasharray="3,2"/>
<rect x="1520.0" y="470.0" width="100.0" height="50.0" rx="2" fill="#aec6e8" stroke="#5b9bd5" stroke-width="1.5" opacity="0.85" />
<text x="1570.0" y="498.0" font-size="8" fill="#1a5276" text-anchor="middle">27</text>
<rect x="16.0" y="616.0" width="108.0" height="58.0" rx="2" fill="none" stroke="#7fb3d3" stroke-width="1" opacity="0.5" stroke-dasharray="3,2"/>
<rect x="20.0" y="620.0" width="100.0" height="50.0" rx="2" fill="#aec6e8" stroke="#5b9bd5" stroke-width="1.5" opacity="0.85" />
<text x="70.0" y="648.0" font-size="8" fill="#1a5276" text-anchor="middle">28</text>
<rect x="266.0" y="616.0" width="108.0" height="58.0" rx="2" fill="none" stroke="#7fb3d3" stroke-width="1" opacity="0.5" stroke-dasharray="3,2"/>
<rect x="270.0" y="620.0" width="100.0" height="50.0" rx="2" fill="#aec6e8" stroke="#5b9bd5" stroke-width="1.5" opacity="0.85" />
<text x="320.0" y="648.0" font-size="8" fill="#1a5276" text-anchor="middle">29</text>
<rect x="516.0" y="616.0" width="108.0" height="58.0" rx="2" fill="none" stroke="#7fb3d3" stroke-width="1" opacity="0.5" stroke-dasharray="3,2"/>
<rect x="520.0" y="620.0" width="100.0" height="50.0" rx="2" fill="#aec6e8" stroke="#5b9bd5" stroke-width="1.5" opacity="0.85" />
<text x="570.0" y="648.0" font-size="8" fill="#1a5276" text-anchor="middle">30</text>
<rect x="766.0" y="616.0" width="108.0" height="58.0" rx="2" fill="none" stroke="#7fb3d3" stroke-width="1" opacity="0.5" stroke-dasharray="3,2"/>
<rect x="770.0" y="620.0" width="100.0" height="50.0" rx="2" fill="#aec6e8" stroke="#5b9bd5" stroke-width="1.5" opacity="0.85" />
<text x="820.0" y="648.0" font-size="8" fill="#1a5276" text-anchor="middle">31</text>
<rect x="1016.0" y="616.0" width="108.0" height="58.0" rx="2" fill="none" stroke="#7fb3d3" stroke-width="1" opacity="0.5" stroke-dasharray="3,2"/>
<rect x="1020.0" y="620.0" width="100.0" height="50.0" rx="2" fill="#aec6e8" stroke="#5b9bd5" stroke-width="1.5" opacity="0.85" />
<text x="1070.0" y="648.0" font-size="8" fill="#1a5276" text-anchor="middle">32</text>
<rect x="1266.0" y="616.0" width="108.0" height="58.0" rx="2" fill="none" stroke="#7fb3d3" stroke-width="1" opacity="0.5" stroke-dasharray="3,2"/>
<rect x="1270.0" y="620.0" width="100.0" height="50.0" rx="2" fill="#aec6e8" stroke="#5b9bd5" stroke-width="1.5" opacity="0.85" />
<text x="1320.0" y="648.0" font-size="8" fill="#1a5276" text-anchor="middle">33</text>
<rect x="1516.0" y="616.0" width="108.0" height="58.0" rx="2" fill="none" stroke="#7fb3d3" stroke-width="1" opacity="0.5" stroke-dasharray="3,2"/>
<rect x="1520.0" y="620.0" width="100.0" height="50.0" rx="2" fill="#aec6e8" stroke="#5b9bd5" stroke-width="1.5" opacity="0.85" />
<text x="1570.0" y="648.0" font-size="8" fill="#1a5276" text-anchor="middle">34</text>
<rect x="16.0" y="766.0" width="108.0" height="58.0" rx="2" fill="none" stroke="#7fb3d3" stroke-width="1" opacity="0.5" stroke-dasharray="3,2"/>
<rect x="20.0" y="770.0" width="100.0" height="50.0" rx="2" fill="#aec6e8" stroke="#5b9bd5" stroke-width="1.5" opacity="0.85" />
<text x="70.0" y="798.0" font-size="8" fill="#1a5276" text-anchor="middle">35</text>
<rect x="266.0" y="766.0" width="108.0" height="58.0" rx="2" fill="none" stroke="#7fb3d3" stroke-width="1" opacity="0.5" stroke-dasharray="3,2"/>
<rect x="270.0" y="770.0" width="100.0" height="50.0" rx="2" fill="#aec6e8" stroke="#5b9bd5" stroke-width="1.5" opacity="0.85" />
<text x="320.0" y="798.0" font-size="8" fill="#1a5276" text-anchor="middle">36</text>
<rect x="516.0" y="766.0" width="108.0" height="58.0" rx="2" fill="none" stroke="#7fb3d3" stroke-width="1" opacity="0.5" stroke-dasharray="3,2"/>
<rect x="520.0" y="770.0" width="100.0" height="50.0" rx="2" fill="#aec6e8" stroke="#5b9bd5" stroke-width="1.5" opacity="0.85" />
<text x="570.0" y="798.0" font-size="8" fill="#1a5276" text-anchor="middle">37</text>
<rect x="766.0" y="766.0" width="108.0" height="58.0" rx="2" fill="none" stroke="#7fb3d3" stroke-width="1" opacity="0.5" stroke-dasharray="3,2"/>
<rect x="770.0" y="770.0" width="100.0" height="50.0" rx="2" fill="#aec6e8" stroke="#5b9bd5" stroke-width="1.5" opacity="0.85" />
<text x="820.0" y="798.0" font-size="8" fill="#1a5276" text-anchor="middle">38</text>
<rect x="1016.0" y="766.0" width="108.0" height="58.0" rx="2" fill="none" stroke="#7fb3d3" stroke-width="1" opacity="0.5" stroke-dasharray="3,2"/>
<rect x="1020.0" y="770.0" width="100.0" height="50.0" rx="2" fill="#aec6e8" stroke="#5b9bd5" stroke-width="1.5" opacity="0.85" />
<text x="1070.0" y="798.0" font-size="8" fill="#1a5276" text-anchor="middle">39</text>
<rect x="1266.0" y="766.0" width="108.0" height="58.0" rx="2" fill="none" stroke="#7fb3d3" stroke-width="1" opacity="0.5" stroke-dasharray="3,2"/>
<rect x="1270.0" y="770.0" width="100.0" height="50.0" rx="2" fill="#aec6e8" stroke="#5b9bd5" stroke-width="1.5" opacity="0.85" />
<text x="1320.0" y="798.0" font-size="8" fill="#1a5276" text-anchor="middle">40</text>
<rect x="1516.0" y="766.0" width="108.0" height="58.0" rx="2" fill="none" stroke="#7fb3d3" stroke-width="1" opacity="0.5" stroke-dasharray="3,2"/>
<rect x="1520.0" y="770.0" width="100.0" height="50.0" rx="2" fill="#aec6e8" stroke="#5b9bd5" stroke-width="1.5" opacity="0.85" />
<text x="1570.0" y="798.0" font-size="8" fill="#1a5276" text-anchor="middle">41</text>
<rect x="16.0" y="916.0" width="108.0" height="58.0" rx="2" fill="none" stroke="#7fb3d3" stroke-width="1" opacity="0.5" stroke-dasharray="3,2"/>
<rect x="20.0" y="920.0" width="100.0" height="50.0" rx="2" fill="#aec6e8" stroke="#5b9bd5" stroke-width="1.5" opacity="0.85" />
<text x="70.0" y="948.0" font-size="8" fill="#1a5276" text-anchor="middle">42</text>
<rect x="266.0" y="916.0" width="108.0" height="58.0" rx="2" fill="none" stroke="#7fb3d3" stroke-width="1" opacity="0.5" stroke-dasharray="3,2"/>
<rect x="270.0" y="920.0" width="100.0" height="50.0" rx="2" fill="#aec6e8" stroke="#5b9bd5" stroke-width="1.5" opacity="0.85" />
<text x="320.0" y="948.0" font-size="8" fill="#1a5276" text-anchor="middle">43</text>
<rect x="516.0" y="916.0" width="108.0" height="58.0" rx="2" fill="none" stroke="#7fb3d3" stroke-width="1" opacity="0.5" stroke-dasharray="3,2"/>
<rect x="520.0" y="920.0" width="100.0" height="50.0" rx="2" fill="#aec6e8" stroke="#5b9bd5" stroke-width="1.5" opacity="0.85" />
<text x="570.0" y="948.0" font-size="8" fill="#1a5276" text-anchor="middle">44</text>
<rect x="766.0" y="916.0" width="108.0" height="58.0" rx="2" fill="none" stroke="#7fb3d3" stroke-width="1" opacity="0.5" stroke-dasharray="3,2"/>
<rect x="770.0" y="920.0" width="100.0" height="50.0" rx="2" fill="#aec6e8" stroke="#5b9bd5" stroke-width="1.5" opacity="0.85" />
<text x="820.0" y="948.0" font-size="8" fill="#1a5276" text-anchor="middle">45</text>
<rect x="1016.0" y="916.0" width="108.0" height="58.0" rx="2" fill="none" stroke="#7fb3d3" stroke-width="1" opacity="0.5" stroke-dasharray="3,2"/>
<rect x="1020.0" y="920.0" width="100.0" height="50.0" rx="2" fill="#aec6e8" stroke="#5b9bd5" stroke-width="1.5" opacity="0.85" />
<text x="1070.0" y="948.0" font-size="8" fill="#1a5276" text-anchor="middle">46</text>
<rect x="1266.0" y="916.0" width="108.0" height="58.0" rx="2" fill="none" stroke="#7fb3d3" stroke-width="1" opacity="0.5" stroke-dasharray="3,2"/>
<rect x="1270.0" y="920.0" width="100.0" height="50.0" rx="2" fill="#aec6e8" stroke="#5b9bd5" stroke-width="1.5" opacity="0.85" />
<text x="1320.0" y="948.0" font-size="8" fill="#1a5276" text-anchor="middle">47</text>
<rect x="1516.0" y="916.0" width="108.0" height="58.0" rx="2" fill="none" stroke="#7fb3d3" stroke-width="1" opacity="0.5" stroke-dasharray="3,2"/>
<rect x="1520.0" y="920.0" width="100.0" height="50.0" rx="2" fill="#aec6e8" stroke="#5b9bd5" stroke-width="1.5" opacity="0.85" />
<text x="1570.0" y="948.0" font-size="8" fill="#1a5276" text-anchor="middle">48</text>
<polyline points="70.0,45.0 320.0,45.0" fill="none" stroke="#e74c3c" stroke-width="1.8" stroke-linejoin="round" marker-end="url(#arr)"/>
<polyline points="70.0,45.0 70.0,195.0" fill="none" stroke="#3498db" stroke-width="1.8" stroke-linejoin="round" marker-end="url(#arr)"/>
<polyline points="320.0,45.0 570.0,45.0" fill="none" stroke="#2ecc71" stroke-width="1.8" stroke-linejoin="round" marker-end="url(#arr)"/>
<polyline points="320.0,45.0 320.0,195.0" fill="none" stroke="#f39c12" stroke-width="1.8" stroke-linejoin="round" marker-end="url(#arr)"/>
<polyline points="570.0,45.0 820.0,45.0" fill="none" stroke="#9b59b6" stroke-width="1.8" stroke-linejoin="round" marker-end="url(#arr)"/>
<polyline points="570.0,45.0 570.0,195.0" fill="none" stroke="#1abc9c" stroke-width="1.8" stroke-linejoin="round" marker-end="url(#arr)"/>
<polyline points="820.0,45.0 1070.0,45.0" fill="none" stroke="#e67e22" stroke-width="1.8" stroke-linejoin="round" marker-end="url(#arr)"/>
<polyline points="820.0,45.0 820.0,195.0" fill="none" stroke="#34495e" stroke-width="1.8" stroke-linejoin="round" marker-end="url(#arr)"/>
<polyline points="1070.0,45.0 1320.0,45.0" fill="none" stroke="#e91e63" stroke-width="1.8" stroke-linejoin="round" marker-end="url(#arr)"/>
<polyline points="1070.0,45.0 1070.0,195.0" fill="none" stroke="#00bcd4" stroke-width="1.8" stroke-linejoin="round" marker-end="url(#arr)"/>
<polyline points="1320.0,45.0 1570.0,45.0" fill="none" stroke="#8bc34a" stroke-width="1.8" stroke-linejoin="round" marker-end="url(#arr)"/>
<polyline points="1320.0,45.0 1320.0,195.0" fill="none" stroke="#ff5722" stroke-width="1.8" stroke-linejoin="round" marker-end="url(#arr)"/>
<polyline points="1570.0,45.0 1570.0,195.0" fill="none" stroke="#e74c3c" stroke-width="1.8" stroke-linejoin="round" marker-end="url(#arr)"/>
<polyline points="70.0,195.0 320.0,195.0" fill="none" stroke="#3498db" stroke-width="1.8" stroke-linejoin="round" marker-end="url(#arr)"/>
<polyline points="70.0,195.0 70.0,345.0" fill="none" stroke="#2ecc71" stroke-width="1.8" stroke-linejoin="round" marker-end="url(#arr)"/>
<polyline points="320.0,195.0 570.0,195.0" fill="none" stroke="#f39c12" stroke-width="1.8" stroke-linejoin="round" marker-end="url(#arr)"/>
<polyline points="320.0,195.0 320.0,345.0" fill="none" stroke="#9b59b6" stroke-width="1.8" stroke-linejoin="round" marker-end="url(#arr)"/>
<polyline points="570.0,195.0 820.0,195.0" fill="none" stroke="#1abc9c" stroke-width="1.8" stroke-linejoin="round" marker-end="url(#arr)"/>
<polyline points="570.0,195.0 570.0,345.0" fill="none" stroke="#e67e22" stroke-width="1.8" stroke-linejoin="round" marker-end="url(#arr)"/>
<polyline points="820.0,195.0 1070.0,195.0" fill="none" stroke="#34495e" stroke-width="1.8" stroke-linejoin="round" marker-end="url(#arr)"/>
<polyline points="820.0,195.0 820.0,345.0" fill="none" stroke="#e91e63" stroke-width="1.8" stroke-linejoin="round" marker-end="url(#arr)"/>
<polyline points="1070.0,195.0 1320.0,195.0" fill="none" stroke="#00bcd4" stroke-width="1.8" stroke-linejoin="round" marker-end="url(#arr)"/>
<polyline points="1070.0,195.0 1070.0,345.0" fill="none" stroke="#8bc34a" stroke-width="1.8" stroke-linejoin="round" marker-end="url(#arr)"/>
<polyline points="1320.0,195.0 1570.0,195.0" fill="none" stroke="#ff5722" stroke-width="1.8" stroke-linejoin="round" marker-end="url(#arr)"/>
<polyline points="1320.0,195.0 1320.0,345.0" fill="none" stroke="#e74c3c" stroke-width="1.8" stroke-linejoin="round" marker-end="url(#arr)"/>
<polyline points="1570.0,195.0 1570.0,345.0" fill="none" stroke="#3498db" stroke-width="1.8" stroke-linejoin="round" marker-end="url(#arr)"/>
<polyline points="70.0,345.0 320.0,345.0" fill="none" stroke="#2ecc71" stroke-width="1.8" stroke-linejoin="round" marker-end="url(#arr)"/>
<polyline points="70.0,345.0 70.0,495.0" fill="none" stroke="#f39c12" stroke-width="1.8" stroke-linejoin="round" marker-end="url(#arr)"/>
<polyline points="320.0,345.0 570.0,345.0" fill="none" stroke="#9b59b6" stroke-width="1.8" stroke-linejoin="round" marker-end="url(#arr)"/>
<polyline points="320.0,345.0 320.0,495.0" fill="none" stroke="#1abc9c" stroke-width="1.8" stroke-linejoin="round" marker-end="url(#arr)"/>
<polyline points="570.0,345.0 820.0,345.0" fill="none" stroke="#e67e22" stroke-width="1.8" stroke-linejoin="round" marker-end="url(#arr)"/>
<polyline points="570.0,345.0 570.0,495.0" fill="none" stroke="#34495e" stroke-width="1.8" stroke-linejoin="round" marker-end="url(#arr)"/>
<polyline points="820.0,345.0 1070.0,345.0" fill="none" stroke="#e91e63" stroke-width="1.8" stroke-linejoin="round" marker-end="url(#arr)"/>
<polyline points="820.0,345.0 820.0,495.0" fill="none" stroke="#00bcd4" stroke-width="1.8" stroke-linejoin="round" marker-end="url(#arr)"/>
<polyline points="1070.0,345.0 1320.0,345.0" fill="none" stroke="#8bc34a" stroke-width="1.8" stroke-linejoin="round" marker-end="url(#arr)"/>
<polyline points="1070.0,345.0 1070.0,495.0" fill="none" stroke="#ff5722" stroke-width="1.8" stroke-linejoin="round" marker-end="url(#arr)"/>
<polyline points="1320.0,345.0 1570.0,345.0" fill="none" stroke="#e74c3c" stroke-width="1.8" stroke-linejoin="round" marker-end="url(#arr)"/>
<polyline points="1320.0,345.0 1320.0,495.0" fill="none" stroke="#3498db" stroke-width="1.8" stroke-linejoin="round" marker-end="url(#arr)"/>
<polyline points="1570.0,345.0 1570.0,495.0" fill="none" stroke="#2ecc71" stroke-width="1.8" stroke-linejoin="round" marker-end="url(#arr)"/>
<polyline points="70.0,495.0 320.0,495.0" fill="none" stroke="#f39c12" stroke-width="1.8" stroke-linejoin="round" marker-end="url(#arr)"/>
<polyline points="70.0,495.0 70.0,645.0" fill="none" stroke="#9b59b6" stroke-width="1.8" stroke-linejoin="round" marker-end="url(#arr)"/>
<polyline points="320.0,495.0 570.0,495.0" fill="none" stroke="#1abc9c" stroke-width="1.8" stroke-linejoin="round" marker-end="url(#arr)"/>
<polyline points="320.0,495.0 320.0,645.0" fill="none" stroke="#e67e22" stroke-width="1.8" stroke-linejoin="round" marker-end="url(#arr)"/>
<polyline points="570.0,495.0 820.0,495.0" fill="none" stroke="#34495e" stroke-width="1.8" stroke-linejoin="round" marker-end="url(#arr)"/>
<polyline points="570.0,495.0 570.0,645.0" fill="none" stroke="#e91e63" stroke-width="1.8" stroke-linejoin="round" marker-end="url(#arr)"/>
<polyline points="820.0,495.0 1070.0,495.0" fill="none" stroke="#00bcd4" stroke-width="1.8" stroke-linejoin="round" marker-end="url(#arr)"/>
<polyline points="820.0,495.0 820.0,645.0" fill="none" stroke="#8bc34a" stroke-width="1.8" stroke-linejoin="round" marker-end="url(#arr)"/>
<polyline points="1070.0,495.0 1320.0,495.0" fill="none" stroke="#ff5722" stroke-width="1.8" stroke-linejoin="round" marker-end="url(#arr)"/>
<polyline points="1070.0,495.0 1070.0,645.0" fill="none" stroke="#e74c3c" stroke-width="1.8" stroke-linejoin="round" marker-end="url(#arr)"/>
<polyline points="1320.0,495.0 1570.0,495.0" fill="none" stroke="#3498db" stroke-width="1.8" stroke-linejoin="round" marker-end="url(#arr)"/>
<polyline points="1320.0,495.0 1320.0,645.0" fill="none" stroke="#2ecc71" stroke-width="1.8" stroke-linejoin="round" marker-end="url(#arr)"/>
<polyline points="1570.0,495.0 1570.0,645.0" fill="none" stroke="#f39c12" stroke-width="1.8" stroke-linejoin="round" marker-end="url(#arr)"/>
<polyline points="70.0,645.0 320.0,645.0" fill="none" stroke="#9b59b6" stroke-width="1.8" stroke-linejoin="round" marker-end="url(#arr)"/>
<polyline points="70.0,645.0 70.0,795.0" fill="none" stroke="#1abc9c" stroke-width="1.8" stroke-linejoin="round" marker-end="url(#arr)"/>
<polyline points="320.0,645.0 570.0,645.0" fill="none" stroke="#e67e22" stroke-width="1.8" stroke-linejoin="round" marker-end="url(#arr)"/>
<polyline points="320.0,645.0 320.0,795.0" fill="none" stroke="#34495e" stroke-width="1.8" stroke-linejoin="round" marker-end="url(#arr)"/>
<polyline points="570.0,645.0 820.0,645.0" fill="none" stroke="#e91e63" stroke-width="1.8" stroke-linejoin="round" marker-end="url(#arr)"/>
<polyline points="570.0,645.0 570.0,795.0" fill="none" stroke="#00bcd4" stroke-width="1.8" stroke-linejoin="round" marker-end="url(#arr)"/>
<polyline points="820.0,645.0 1070.0,645.0" fill="none" stroke="#8bc34a" stroke-width="1.8" stroke-linejoin="round" marker-end="url(#arr)"/>
<polyline points="820.0,645.0 820.0,795.0" fill="none" stroke="#ff5722" stroke-width="1.8" stroke-linejoin="round" marker-end="url(#arr)"/>
<polyline points="1070.0,645.0 1320.0,645.0" fill="none" stroke="#e74c3c" stroke-width="1.8" stroke-linejoin="round" marker-end="url(#arr)"/>
<polyline points="1070.0,645.0 1070.0,795.0" fill="none" stroke="#3498db" stroke-width="1.8" stroke-linejoin="round" marker-end="url(#arr)"/>
<polyline points="1320.0,645.0 1570.0,645.0" fill="none" stroke="#2ecc71" stroke-width="1.8" stroke-linejoin="round" marker-end="url(#arr)"/>
<polyline points="1320.0,645.0 1320.0,795.0" fill="none" stroke="#f39c12" stroke-width="1.8" stroke-linejoin="round" marker-end="url(#arr)"/>
<polyline points="1570.0,645.0 1570.0,795.0" fill="none" stroke="#9b59b6" stroke-width="1.8" stroke-linejoin="round" marker-end="url(#arr)"/>
<polyline points="70.0,795.0 320.0,795.0" fill="none" stroke="#1abc9c" stroke-width="1.8" stroke-linejoin="round" marker-end="url(#arr)"/>
<polyline points="70.0,795.0 70.0,945.0" fill="none" stroke="#e67e22" stroke-width="1.8" stroke-linejoin="round" marker-end="url(#arr)"/>
<polyline points="320.0,795.0 570.0,795.0" fill="none" stroke="#34495e" stroke-width="1.8" stroke-linejoin="round" marker-end="url(#arr)"/>
<polyline points="320.0,795.0 320.0,945.0" fill="none" stroke="#e91e63" stroke-width="1.8" stroke-linejoin="round" marker-end="url(#arr)"/>
<polyline points="570.0,795.0 820.0,795.0" fill="none" stroke="#00bcd4" stroke-width="1.8" stroke-linejoin="round" marker-end="url(#arr)"/>
<polyline points="570.0,795.0 570.0,945.0" fill="none" stroke="#8bc34a" stroke-width="1.8" stroke-linejoin="round" marker-end="url(#arr)"/>
<polyline points="820.0,795.0 1070.0,795.0" fill="none" stroke="#ff5722" stroke-width="1.8" stroke-linejoin="round" marker-end="url(#arr)"/>
<polyline points="820.0,795.0 820.0,945.0" fill="none" stroke="#e74c3c" stroke-width="1.8" stroke-linejoin="round" marker-end="url(#arr)"/>
<polyline points="1070.0,795.0 1320.0,795.0" fill="none" stroke="#3498db" stroke-width="1.8" stroke-linejoin="round" marker-end="url(#arr)"/>
<polyline points="1070.0,795.0 1070.0,945.0" fill="none" stroke="#2ecc71" stroke-width="1.8" stroke-linejoin="round" marker-end="url(#arr)"/>
<polyline points="1320.0,795.0 1570.0,795.0" fill="none" stroke="#f39c12" stroke-width="1.8" stroke-linejoin="round" marker-end="url(#arr)"/>
<polyline points="1320.0,795.0 1320.0,945.0" fill="none" stroke="#9b59b6" stroke-width="1.8" stroke-linejoin="round" marker-end="url(#arr)"/>
<polyline points="1570.0,795.0 1570.0,945.0" fill="none" stroke="#1abc9c" stroke-width="1.8" stroke-linejoin="round" marker-end="url(#arr)"/>
<polyline points="70.0,945.0 320.0,945.0" fill="none" stroke="#e67e22" stroke-width="1.8" stroke-linejoin="round" marker-end="url(#arr)"/>
<polyline points="320.0,945.0 570.0,945.0" fill="none" stroke="#34495e" stroke-width="1.8" stroke-linejoin="round" marker-end="url(#arr)"/>
<circle cx="70.0" cy="45.0" r="3.5" fill="#e74c3c" stroke="#fff" stroke-width="1"/>
<circle cx="320.0" cy="45.0" r="3.5" fill="#e74c3c" stroke="#e74c3c" stroke-width="1.5"/>
<circle cx="70.0" cy="45.0" r="3.5" fill="#3498db" stroke="#fff" stroke-width="1"/>
<circle cx="70.0" cy="195.0" r="3.5" fill="#3498db" stroke="#3498db" stroke-width="1.5"/>
<circle cx="320.0" cy="45.0" r="3.5" fill="#2ecc71" stroke="#fff" stroke-width="1"/>
<circle cx="570.0" cy="45.0" r="3.5" fill="#2ecc71" stroke="#2ecc71" stroke-width="1.5"/>
<circle cx="320.0" cy="45.0" r="3.5" fill="#f39c12" stroke="#fff" stroke-width="1"/>
<circle cx="320.0" cy="195.0" r="3.5" fill="#f39c12" stroke="#f39c12" stroke-width="1.5"/>
<circle cx="570.0" cy="45.0" r="3.5" fill="#9b59b6" stroke="#fff" stroke-width="1"/>
<circle cx="820.0" cy="45.0" r="3.5" fill="#9b59b6" stroke="#9b59b6" stroke-width="1.5"/>
<circle cx="570.0" cy="45.0" r="3.5" fill="#1abc9c" stroke="#fff" stroke-width="1"/>
<circle cx="570.0" cy="195.0" r="3.5" fill="#1abc9c" stroke="#1abc9c" stroke-width="1.5"/>
<circle cx="820.0" cy="45.0" r="3.5" fill="#e67e22" stroke="#fff" stroke-width="1"/>
<circle cx="1070.0" cy="45.0" r="3.5" fill="#e67e22" stroke="#e67e22" stroke-width="1.5"/>
<circle cx="820.0" cy="45.0" r="3.5" fill="#34495e" stroke="#fff" stroke-width="1"/>
<circle cx="820.0" cy="195.0" r="3.5" fill="#34495e" stroke="#34495e" stroke-width="1.5"/>
<circle cx="1070.0" cy="45.0" r="3.5" fill="#e91e63" stroke="#fff" stroke-width="1"/>
<circle cx="1320.0" cy="45.0" r="3.5" fill="#e91e63" stroke="#e91e63" stroke-width="1.5"/>
<circle cx="1070.0" cy="45.0" r="3.5" fill="#00bcd4" stroke="#fff" stroke-width="1"/>
<circle cx="1070.0" cy="195.0" r="3.5" fill="#00bcd4" stroke="#00bcd4" stroke-width="1.5"/>
<circle cx="1320.0" cy="45.0" r="3.5" fill="#8bc34a" stroke="#fff" stroke-width="1"/>
<circle cx="1570.0" cy="45.0" r="3.5" fill="#8bc34a" stroke="#8bc34a" stroke-width="1.5"/>
<circle cx="1320.0" cy="45.0" r="3.5" fill="#ff5722" stroke="#fff" stroke-width="1"/>
<circle cx="1320.0" cy="195.0" r="3.5" fill="#ff5722" stroke="#ff5722" stroke-width="1.5"/>
<circle cx="1570.0" cy="45.0" r="3.5" fill="#e74c3c" stroke="#fff" stroke-width="1"/>
<circle cx="1570.0" cy="195.0" r="3.5" fill="#e74c3c" stroke="#e74c3c" stroke-width="1.5"/>
<circle cx="70.0" cy="195.0" r="3.5" fill="#3498db" stroke="#fff" stroke-width="1"/>
<circle cx="320.0" cy="195.0" r="3.5" fill="#3498db" stroke="#3498db" stroke-width="1.5"/>
<circle cx="70.0" cy="195.0" r="3.5" fill="#2ecc71" stroke="#fff" stroke-width="1"/>
<circle cx="70.0" cy="345.0" r="3.5" fill="#2ecc71" stroke="#2ecc71" stroke-width="1.5"/>
<circle cx="320.0" cy="195.0" r="3.5" fill="#f39c12" stroke="#fff" stroke-width="1"/>
<circle cx="570.0" cy="195.0" r="3.5" fill="#f39c12" stroke="#f39c12" stroke-width="1.5"/>
<circle cx="320.0" cy="195.0" r="3.5" fill="#9b59b6" stroke="#fff" stroke-width="1"/>
<circle cx="320.0" cy="345.0" r="3.5" fill="#9b59b6" stroke="#9b59b6" stroke-width="1.5"/>
<circle cx="570.0" cy="195.0" r="3.5" fill="#1abc9c" stroke="#fff" stroke-width="1"/>
<circle cx="820.0" cy="195.0" r="3.5" fill="#1abc9c" stroke="#1abc9c" stroke-width="1.5"/>
<circle cx="570.0" cy="195.0" r="3.5" fill="#e67e22" stroke="#fff" stroke-width="1"/>
<circle cx="570.0" cy="345.0" r="3.5" fill="#e67e22" stroke="#e67e22" stroke-width="1.5"/>
<circle cx="820.0" cy="195.0" r="3.5" fill="#34495e" stroke="#fff" stroke-width="1"/>
<circle cx="1070.0" cy="195.0" r="3.5" fill="#34495e" stroke="#34495e" stroke-width="1.5"/>
<circle cx="820.0" cy="195.0" r="3.5" fill="#e91e63" stroke="#fff" stroke-width="1"/>
<circle cx="820.0" cy="345.0" r="3.5" fill="#e91e63" stroke="#e91e63" stroke-width="1.5"/>
<circle cx="1070.0" cy="195.0" r="3.5" fill="#00bcd4" stroke="#fff" stroke-width="1"/>
<circle cx="1320.0" cy="195.0" r="3.5" fill="#00bcd4" stroke="#00bcd4" stroke-width="1.5"/>
<circle cx="1070.0" cy="195.0" r="3.5" fill="#8bc34a" stroke="#fff" stroke-width="1"/>
<circle cx="1070.0" cy="345.0" r="3.5" fill="#8bc34a" stroke="#8bc34a" stroke-width="1.5"/>
<circle cx="1320.0" cy="195.0" r="3.5" fill="#ff5722" stroke="#fff" stroke-width="1"/>
<circle cx="1570.0" cy="195.0" r="3.5" fill="#ff5722" stroke="#ff5722" stroke-width="1.5"/>
<circle cx="1320.0" cy="195.0" r="3.5" fill="#e74c3c" stroke="#fff" stroke-width="1"/>
<circle cx="1320.0" cy="345.0" r="3.5" fill="#e74c3c" stroke="#e74c3c" stroke-width="1.5"/>
<circle cx="1570.0" cy="195.0" r="3.5" fill="#3498db" stroke="#fff" stroke-width="1"/>
<circle cx="1570.0" cy="345.0" r="3.5" fill="#3498db" stroke="#3498db" stroke-width="1.5"/>
<circle cx="70.0" cy="345.0" r="3.5" fill="#2ecc71" stroke="#fff" stroke-width="1"/>
<circle cx="320.0" cy="345.0" r="3.5" fill="#2ecc71" stroke="#2ecc71" stroke-width="1.5"/>
<circle cx="70.0" cy="345.0" r="3.5" fill="#f39c12" stroke="#fff" stroke-width="1"/>
<circle cx="70.0" cy="495.0" r="3.5" fill="#f39c12" stroke="#f39c12" stroke-width="1.5"/>
<circle cx="320.0" cy="345.0" r="3.5" fill="#9b59b6" stroke="#fff" stroke-width="1"/>
<circle cx="570.0" cy="345.0" r="3.5" fill="#9b59b6" stroke="#9b59b6" stroke-width="1.5"/>
<circle cx="320.0" cy="345.0" r="3.5" fill="#1abc9c" stroke="#fff" stroke-width="1"/>
<circle cx="320.0" cy="495.0" r="3.5" fill="#1abc9c" stroke="#1abc9c" stroke-width="1.5"/>
<circle cx="570.0" cy="345.0" r="3.5" fill="#e67e22" stroke="#fff" stroke-width="1"/>
<circle cx="820.0" cy="345.0" r="3.5" fill="#e67e22" stroke="#e67e22" stroke-width="1.5"/>
<circle cx="570.0" cy="345.0" r="3.5" fill="#34495e" stroke="#fff" stroke-width="1"/>
<circle cx="570.0" cy="495.0" r="3.5" fill="#34495e" stroke="#34495e" stroke-width="1.5"/>
<circle cx="820.0" cy="345.0" r="3.5" fill="#e91e63" stroke="#fff" stroke-width="1"/>
<circle cx="1070.0" cy="345.0" r="3.5" fill="#e91e63" stroke="#e91e63" stroke-width="1.5"/>
<circle cx="820.0" cy="345.0" r="3.5" fill="#00bcd4" stroke="#fff" stroke-width="1"/>
<circle cx="820.0" cy="495.0" r="3.5" fill="#00bcd4" stroke="#00bcd4" stroke-width="1.5"/>
<circle cx="1070.0" cy="345.0" r="3.5" fill="#8bc34a" stroke="#fff" stroke-width="1"/>
<circle cx="1320.0" cy="345.0" r="3.5" fill="#8bc34a" stroke="#8bc34a" stroke-width="1.5"/>
<circle cx="1070.0" cy="345.0" r="3.5" fill="#ff5722" stroke="#fff" stroke-width="1"/>
<circle cx="1070.0" cy="495.0" r="3.5" fill="#ff5722" stroke="#ff5722" stroke-width="1.5"/>
<circle cx="1320.0" cy="345.0" r="3.5" fill="#e74c3c" stroke="#fff" stroke-width="1"/>
<circle cx="1570.0" cy="345.0" r="3.5" fill="#e74c3c" stroke="#e74c3c" stroke-width="1.5"/>
<circle cx="1320.0" cy="345.0" r="3.5" fill="#3498db" stroke="#fff" stroke-width="1"/>
<circle cx="1320.0" cy="495.0" r="3.5" fill="#3498db" stroke="#3498db" stroke-width="1.5"/>
<circle cx="1570.0" cy="345.0" r="3.5" fill="#2ecc71" stroke="#fff" stroke-width="1"/>
<circle cx="1570.0" cy="495.0" r="3.5" fill="#2ecc71" stroke="#2ecc71" stroke-width="1.5"/>
<circle cx="70.0" cy="495.0" r="3.5" fill="#f39c12" stroke="#fff" stroke-width="1"/>
<circle cx="320.0" cy="495.0" r="3.5" fill="#f39c12" stroke="#f39c12" stroke-width="1.5"/>
<circle cx="70.0" cy="495.0" r="3.5" fill="#9b59b6" stroke="#fff" stroke-width="1"/>
<circle cx="70.0" cy="645.0" r="3.5" fill="#9b59b6" stroke="#9b59b6" stroke-width="1.5"/>
<circle cx="320.0" cy="495.0" r="3.5" fill="#1abc9c" stroke="#fff" stroke-width="1"/>
<circle cx="570.0" cy="495.0" r="3.5" fill="#1abc9c" stroke="#1abc9c" stroke-width="1.5"/>
<circle cx="320.0" cy="495.0" r="3.5" fill="#e67e22" stroke="#fff" stroke-width="1"/>
<circle cx="320.0" cy="645.0" r="3.5" fill="#e67e22" stroke="#e67e22" stroke-width="1.5"/>
<circle cx="570.0" cy="495.0" r="3.5" fill="#34495e" stroke="#fff" stroke-width="1"/>
<circle cx="820.0" cy="495.0" r="3.5" fill="#34495e" stroke="#34495e" stroke-width="1.5"/>
<circle cx="570.0" cy="495.0" r="3.5" fill="#e91e63" stroke="#fff" stroke-width="1"/>
<circle cx="570.0" cy="645.0" r="3.5" fill="#e91e63" stroke="#e91e63" stroke-width="1.5"/>
<circle cx="820.0" cy="495.0" r="3.5" fill="#00bcd4" stroke="#fff" stroke-width="1"/>
<circle cx="1070.0" cy="495.0" r="3.5" fill="#00bcd4" stroke="#00bcd4" stroke-width="1.5"/>
<circle cx="820.0" cy="495.0" r="3.5" fill="#8bc34a" stroke="#fff" stroke-width="1"/>
<circle cx="820.0" cy="645.0" r="3.5" fill="#8bc34a" stroke="#8bc34a" stroke-width="1.5"/>
<circle cx="1070.0" cy="495.0" r="3.5" fill="#ff5722" stroke="#fff" stroke-width="1"/>
<circle cx="1320.0" cy="495.0" r="3.5" fill="#ff5722" stroke="#ff5722" stroke-width="1.5"/>
<circle cx="1070.0" cy="495.0" r="3.5" fill="#e74c3c" stroke="#fff" stroke-width="1"/>
<circle cx="1070.0" cy="645.0" r="3.5" fill="#e74c3c" stroke="#e74c3c" stroke-width="1.5"/>
<circle cx="1320.0" cy="495.0" r="3.5" fill="#3498db" stroke="#fff" stroke-width="1"/>
<circle cx="1570.0" cy="495.0" r="3.5" fill="#3498db" stroke="#3498db" stroke-width="1.5"/>
<circle cx="1320.0" cy="495.0" r="3.5" fill="#2ecc71" stroke="#fff" stroke-width="1"/>
<circle cx="1320.0" cy="645.0" r="3.5" fill="#2ecc71" stroke="#2ecc71" stroke-width="1.5"/>
<circle cx="1570.0" cy="495.0" r="3.5" fill="#f39c12" stroke="#fff" stroke-width="1"/>
<circle cx="1570.0" cy="645.0" r="3.5" fill="#f39c12" stroke="#f39c12" stroke-width="1.5"/>
<circle cx="70.0" cy="645.0" r="3.5" fill="#9b59b6" stroke="#fff" stroke-width="1"/>
<circle cx="320.0" cy="645.0" r="3.5" fill="#9b59b6" stroke="#9b59b6" stroke-width="1.5"/>
<circle cx="70.0" cy="645.0" r="3.5" fill="#1abc9c" stroke="#fff" stroke-width="1"/>
<circle cx="70.0" cy="795.0" r="3.5" fill="#1abc9c" stroke="#1abc9c" stroke-width="1.5"/>
<circle cx="320.0" cy="645.0" r="3.5" fill="#e67e22" stroke="#fff" stroke-width="1"/>
<circle cx="570.0" cy="645.0" r="3.5" fill="#e67e22" stroke="#e67e22" stroke-width="1.5"/>
<circle cx="320.0" cy="645.0" r="3.5" fill="#34495e" stroke="#fff" stroke-width="1"/>
<circle cx="320.0" cy="795.0" r="3.5" fill="#34495e" stroke="#34495e" stroke-width="1.5"/>
<circle cx="570.0" cy="645.0" r="3.5" fill="#e91e63" stroke="#fff" stroke-width="1"/>
<circle cx="820.0" cy="645.0" r="3.5" fill="#e91e63" stroke="#e91e63" stroke-width="1.5"/>
<circle cx="570.0" cy="645.0" r="3.5" fill="#00bcd4" stroke="#fff" stroke-width="1"/>
<circle cx="570.0" cy="795.0" r="3.5" fill="#00bcd4" stroke="#00bcd4" stroke-width="1.5"/>
<circle cx="820.0" cy="645.0" r="3.5" fill="#8bc34a" stroke="#fff" stroke-width="1"/>
<circle cx="1070.0" cy="645.0" r="3.5" fill="#8bc34a" stroke="#8bc34a" stroke-width="1.5"/>
<circle cx="820.0" cy="645.0" r="3.5" fill="#ff5722" stroke="#fff" stroke-width="1"/>
<circle cx="820.0" cy="795.0" r="3.5" fill="#ff5722" stroke="#ff5722" stroke-width="1.5"/>
<circle cx="1070.0" cy="645.0" r="3.5" fill="#e74c3c" stroke="#fff" stroke-width="1"/>
<circle cx="1320.0" cy="645.0" r="3.5" fill="#e74c3c" stroke="#e74c3c" stroke-width="1.5"/>
<circle cx="1070.0" cy="645.0" r="3.5" fill="#3498db" stroke="#fff" stroke-width="1"/>
<circle cx="1070.0" cy="795.0" r="3.5" fill="#3498db" stroke="#3498db" stroke-width="1.5"/>
<circle cx="1320.0" cy="645.0" r="3.5" fill="#2ecc71" stroke="#fff" stroke-width="1"/>
<circle cx="1570.0" cy="645.0" r="3.5" fill="#2ecc71" stroke="#2ecc71" stroke-width="1.5"/>
<circle cx="1320.0" cy="645.0" r="3.5" fill="#f39c12" stroke="#fff" stroke-width="1"/>
<circle cx="1320.0" cy="795.0" r="3.5" fill="#f39c12" stroke="#f39c12" stroke-width="1.5"/>
<circle cx="1570.0" cy="645.0" r="3.5" fill="#9b59b6" stroke="#fff" stroke-width="1"/>
<circle cx="1570.0" cy="795.0" r="3.5" fill="#9b59b6" stroke="#9b59b6" stroke-width="1.5"/>
<circle cx="70.0" cy="795.0" r="3.5" fill="#1abc9c" stroke="#fff" stroke-width="1"/>
<circle cx="320.0" cy="795.0" r="3.5" fill="#1abc9c" stroke="#1abc9c" stroke-width="1.5"/>
<circle cx="70.0" cy="795.0" r="3.5" fill="#e67e22" stroke="#fff" stroke-width="1"/>
<circle cx="70.0" cy="945.0" r="3.5" fill="#e67e22" stroke="#e67e22" stroke-width="1.5"/>
<circle cx="320.0" cy="795.0" r="3.5" fill="#34495e" stroke="#fff" stroke-width="1"/>
<circle cx="570.0" cy="795.0" r="3.5" fill="#34495e" stroke="#34495e" stroke-width="1.5"/>
<circle cx="320.0" cy="795.0" r="3.5" fill="#e91e63" stroke="#fff" stroke-width="1"/>
<circle cx="320.0" cy="945.0" r="3.5" fill="#e91e63" stroke="#e91e63" stroke-width="1.5"/>
<circle cx="570.0" cy="795.0" r="3.5" fill="#00bcd4" stroke="#fff" stroke-width="1"/>
<circle cx="820.0" cy="795.0" r="3.5" fill="#00bcd4" stroke="#00bcd4" stroke-width="1.5"/>
<circle cx="570.0" cy="795.0" r="3.5" fill="#8bc34a" stroke="#fff" stroke-width="1"/>
<circle cx="570.0" cy="945.0" r="3.5" fill="#8bc34a" stroke="#8bc34a" stroke-width="1.5"/>
<circle cx="820.0" cy="795.0" r="3.5" fill="#ff5722" stroke="#fff" stroke-width="1"/>
<circle cx="1070.0" cy="795.0" r="3.5" fill="#ff5722" stroke="#ff5722" stroke-width="1.5"/>
<circle cx="820.0" cy="795.0" r="3.5" fill="#e74c3c" stroke="#fff" stroke-width="1"/>
<circle cx="820.0" cy="945.0" r="3.5" fill="#e74c3c" stroke="#e74c3c" stroke-width="1.5"/>
<circle cx="1070.0" cy="795.0" r="3.5" fill="#3498db" stroke="#fff" stroke-width="1"/>
<circle cx="1320.0" cy="795.0" r="3.5" fill="#3498db" stroke="#3498db" stroke-width="1.5"/>
<circle cx="1070.0" cy="795.0" r="3.5" fill="#2ecc71" stroke="#fff" stroke-width="1"/>
<circle cx="1070.0" cy="945.0" r="3.5" fill="#2ecc71" stroke="#2ecc71" stroke-width="1.5"/>
<circle cx="1320.0" cy="795.0" r="3.5" fill="#f39c12" stroke="#fff" stroke-width="1"/>
<circle cx="1570.0" cy="795.0" r="3.5" fill="#f39c12" stroke="#f39c12" stroke-width="1.5"/>
<circle cx="1320.0" cy="795.0" r="3.5" fill="#9b59b6" stroke="#fff" stroke-width="1"/>
<circle cx="1320.0" cy="945.0" r="3.5" fill="#9b59b6" stroke="#9b59b6" stroke-width="1.5"/>
<circle cx="1570.0" cy="795.0" r="3.5" fill="#1abc9c" stroke="#fff" stroke-width="1"/>
<circle cx="1570.0" cy="945.0" r="3.5" fill="#1abc9c" stroke="#1abc9c" stroke-width="1.5"/>
<circle cx="70.0" cy="945.0" r="3.5" fill="#e67e22" stroke="#fff" stroke-width="1"/>
<circle cx="320.0" cy="945.0" r="3.5" fill="#e67e22" stroke="#e67e22" stroke-width="1.5"/>
<circle cx="320.0" cy="945.0" r="3.5" fill="#34495e" stroke="#fff" stroke-width="1"/>
<circle cx="570.0" cy="945.0" r="3.5" fill="#34495e" stroke="#34495e" stroke-width="1.5"/>
<text x="6" y="14" font-size="11" fill="#555" font-family="monospace">medium: 49 obstacles, 80 edges [routed]</text>
</svg>
