<svg xmlns="http://www.w3.org/2000/svg" width="1010.0" height="576.0" style="font-family:monospace">
<rect width="1010.0" height="576.0" fill="#f8f9fa"/>
<defs>
  <marker id="arr" markerWidth="6" markerHeight="6"           refX="5" refY="3" orient="auto">
    <path d="M0,0 L6,3 L0,6 Z" fill="context-stroke"/>
  </marker>
</defs>
<line x1="-30" y1="0" x2="-30" y2="576" stroke="#e0e0e0" stroke-width="0.5"/>
<line x1="20" y1="0" x2="20" y2="576" stroke="#e0e0e0" stroke-width="0.5"/>
<line x1="70" y1="0" x2="70" y2="576" stroke="#e0e0e0" stroke-width="0.5"/>
<line x1="120" y1="0" x2="120" y2="576" stroke="#e0e0e0" stroke-width="0.5"/>
<line x1="170" y1="0" x2="170" y2="576" stroke="#e0e0e0" stroke-width="0.5"/>
<line x1="220" y1="0" x2="220" y2="576" stroke="#e0e0e0" stroke-width="0.5"/>
<line x1="270" y1="0" x2="270" y2="576" stroke="#e0e0e0" stroke-width="0.5"/>
<line x1="320" y1="0" x2="320" y2="576" stroke="#e0e0e0" stroke-width="0.5"/>
<line x1="370" y1="0" x2="370" y2="576" stroke="#e0e0e0" stroke-width="0.5"/>
<line x1="420" y1="0" x2="420" y2="576" stroke="#e0e0e0" stroke-width="0.5"/>
<line x1="470" y1="0" x2="470" y2="576" stroke="#e0e0e0" stroke-width="0.5"/>
<line x1="520" y1="0" x2="520" y2="576" stroke="#e0e0e0" stroke-width="0.5"/>
<line x1="570" y1="0" x2="570" y2="576" stroke="#e0e0e0" stroke-width="0.5"/>
<line x1="620" y1="0" x2="620" y2="576" stroke="#e0e0e0" stroke-width="0.5"/>
<line x1="670" y1="0" x2="670" y2="576" stroke="#e0e0e0" stroke-width="0.5"/>
<line x1="720" y1="0" x2="720" y2="576" stroke="#e0e0e0" stroke-width="0.5"/>
<line x1="770" y1="0" x2="770" y2="576" stroke="#e0e0e0" stroke-width="0.5"/>
<line x1="820" y1="0" x2="820" y2="576" stroke="#e0e0e0" stroke-width="0.5"/>
<line x1="870" y1="0" x2="870" y2="576" stroke="#e0e0e0" stroke-width="0.5"/>
<line x1="920" y1="0" x2="920" y2="576" stroke="#e0e0e0" stroke-width="0.5"/>
<line x1="970" y1="0" x2="970" y2="576" stroke="#e0e0e0" stroke-width="0.5"/>
<line x1="0" y1="-34" x2="1010" y2="-34" stroke="#e0e0e0" stroke-width="0.5"/>
<line x1="0" y1="16" x2="1010" y2="16" stroke="#e0e0e0" stroke-width="0.5"/>
<line x1="0" y1="66" x2="1010" y2="66" stroke="#e0e0e0" stroke-width="0.5"/>
<line x1="0" y1="116" x2="1010" y2="116" stroke="#e0e0e0" stroke-width="0.5"/>
<line x1="0" y1="166" x2="1010" y2="166" stroke="#e0e0e0" stroke-width="0.5"/>
<line x1="0" y1="216" x2="1010" y2="216" stroke="#e0e0e0" stroke-width="0.5"/>
<line x1="0" y1="266" x2="1010" y2="266" stroke="#e0e0e0" stroke-width="0.5"/>
<line x1="0" y1="316" x2="1010" y2="316" stroke="#e0e0e0" stroke-width="0.5"/>
<line x1="0" y1="366" x2="1010" y2="366" stroke="#e0e0e0" stroke-width="0.5"/>
<line x1="0" y1="416" x2="1010" y2="416" stroke="#e0e0e0" stroke-width="0.5"/>
<line x1="0" y1="466" x2="1010" y2="466" stroke="#e0e0e0" stroke-width="0.5"/>
<line x1="0" y1="516" x2="1010" y2="516" stroke="#e0e0e0" stroke-width="0.5"/>
<line x1="0" y1="566" x2="1010" y2="566" stroke="#e0e0e0" stroke-width="0.5"/>
<polyline points="80.0,97.7 730.0,97.7" fill="none" stroke="#e74c3c" stroke-width="1.8" stroke-linejoin="round" marker-end="url(#arr)"/>
<polyline points="80.0,121.7 236.0,121.7 236.0,190.0 302.7,190.0 302.7,125.5 591.0,125.5 591.0,240.0 730.0,240.0" fill="none" stroke="#3498db" stroke-width="1.8" stroke-linejoin="round" marker-end="url(#arr)"/>
<polyline points="80.0,137.7 220.0,137.7 220.0,222.0 334.7,222.0 334.7,197.5 522.0,197.5 522.0,312.0 612.0,312.0 612.0,364.0 573.4,364.0 573.4,402.0 730.0,402.0" fill="none" stroke="#2ecc71" stroke-width="1.8" stroke-linejoin="round" marker-end="url(#arr)"/>
<polyline points="80.0,41.7 446.7,41.7 446.7,20.0 836.0,20.0 836.0,79.0 930.0,79.0" fill="none" stroke="#f39c12" stroke-width="1.8" stroke-linejoin="round" marker-end="url(#arr)"/>
<polyline points="80.0,113.7 244.0,113.7 244.0,174.0 290.1,174.0 290.1,93.5 626.0,93.5 626.0,224.0 599.0,224.0 599.0,206.0 844.0,206.0 844.0,244.0 930.0,244.0" fill="none" stroke="#9b59b6" stroke-width="1.8" stroke-linejoin="round" marker-end="url(#arr)"/>
<polyline points="80.0,129.7 228.0,129.7 228.0,206.0 318.7,206.0 318.7,173.5 546.0,173.5 546.0,288.0 656.0,288.0 656.0,352.0 804.0,352.0 804.0,402.0 930.0,402.0" fill="none" stroke="#1abc9c" stroke-width="1.8" stroke-linejoin="round" marker-end="url(#arr)"/>
<polyline points="80.0,244.0 172.0,244.0 172.0,105.7 730.0,105.7" fill="none" stroke="#e67e22" stroke-width="1.8" stroke-linejoin="round" marker-end="url(#arr)"/>
<polyline points="80.0,260.0 188.0,260.0 188.0,198.0 310.7,198.0 310.7,133.5 586.0,133.5 586.0,248.0 730.0,248.0" fill="none" stroke="#34495e" stroke-width="1.8" stroke-linejoin="round" marker-end="url(#arr)"/>
<polyline points="80.0,276.0 204.0,276.0 204.0,230.0 342.7,230.0 342.7,205.5 514.0,205.5 514.0,320.0 604.0,320.0 604.0,356.0 565.4,356.0 565.4,410.0 730.0,410.0" fill="none" stroke="#e91e63" stroke-width="1.8" stroke-linejoin="round" marker-end="url(#arr)"/>
<polyline points="80.0,236.0 164.0,236.0 164.0,49.7 406.7,49.7 406.7,68.3 454.7,68.3 454.7,28.0 828.0,28.0 828.0,87.0 930.0,87.0" fill="none" stroke="#00bcd4" stroke-width="1.8" stroke-linejoin="round" marker-end="url(#arr)"/>
<polyline points="80.0,252.0 180.0,252.0 180.0,182.0 294.7,182.0 294.7,101.5 618.0,101.5 618.0,216.0 604.0,216.0 604.0,214.0 836.0,214.0 836.0,252.0 930.0,252.0" fill="none" stroke="#8bc34a" stroke-width="1.8" stroke-linejoin="round" marker-end="url(#arr)"/>
<polyline points="80.0,268.0 196.0,268.0 196.0,214.0 326.7,214.0 326.7,181.5 538.0,181.5 538.0,296.0 648.0,296.0 648.0,360.0 796.0,360.0 796.0,410.0 930.0,410.0" fill="none" stroke="#ff5722" stroke-width="1.8" stroke-linejoin="round" marker-end="url(#arr)"/>
<polyline points="80.0,404.0 362.0,404.0 362.0,346.0 376.0,346.0 376.0,121.7 730.0,121.7" fill="none" stroke="#e74c3c" stroke-width="1.8" stroke-linejoin="round" marker-end="url(#arr)"/>
<polyline points="80.0,420.0 378.0,420.0 378.0,354.0 384.0,354.0 384.0,149.5 570.0,149.5 570.0,264.0 730.0,264.0" fill="none" stroke="#3498db" stroke-width="1.8" stroke-linejoin="round" marker-end="url(#arr)"/>
<polyline points="80.0,460.0 418.0,460.0 418.0,476.0 328.0,476.0 328.0,524.0 612.0,524.0 612.0,426.0 730.0,426.0" fill="none" stroke="#2ecc71" stroke-width="1.8" stroke-linejoin="round" marker-end="url(#arr)"/>
<polyline points="80.0,388.0 346.0,388.0 346.0,330.0 370.7,330.0 370.7,73.7 430.7,73.7 430.7,92.3 478.7,92.3 478.7,52.0 804.0,52.0 804.0,111.0 930.0,111.0" fill="none" stroke="#f39c12" stroke-width="1.8" stroke-linejoin="round" marker-end="url(#arr)"/>
<polyline points="80.0,444.0 434.0,444.0 434.0,492.0 344.0,492.0 344.0,508.0 596.0,508.0 596.0,378.0 632.0,378.0 632.0,302.0 796.0,302.0 796.0,268.0 930.0,268.0" fill="none" stroke="#9b59b6" stroke-width="1.8" stroke-linejoin="round" marker-end="url(#arr)"/>
<polyline points="80.0,476.0 402.0,476.0 402.0,460.0 304.0,460.0 304.0,548.0 804.0,548.0 804.0,426.0 930.0,426.0" fill="none" stroke="#1abc9c" stroke-width="1.8" stroke-linejoin="round" marker-end="url(#arr)"/>
<polyline points="280.0,89.7 730.0,89.7" fill="none" stroke="#e67e22" stroke-width="1.8" stroke-linejoin="round" marker-end="url(#arr)"/>
<polyline points="280.0,145.7 430.9,145.7 430.9,85.5 406.9,85.5 406.9,117.5 602.0,117.5 602.0,232.0 730.0,232.0" fill="none" stroke="#34495e" stroke-width="1.8" stroke-linejoin="round" marker-end="url(#arr)"/>
<polyline points="280.0,161.7 414.9,161.7 414.9,69.5 390.9,69.5 390.9,189.5 530.0,189.5 530.0,304.0 620.0,304.0 620.0,372.0 581.4,372.0 581.4,394.0 730.0,394.0" fill="none" stroke="#e91e63" stroke-width="1.8" stroke-linejoin="round" marker-end="url(#arr)"/>
<polyline points="280.0,57.7 414.7,57.7 414.7,76.3 462.7,76.3 462.7,36.0 820.0,36.0 820.0,95.0 930.0,95.0" fill="none" stroke="#00bcd4" stroke-width="1.8" stroke-linejoin="round" marker-end="url(#arr)"/>
<polyline points="280.0,106.0 402.9,106.0 402.9,80.0 664.0,80.0 664.0,210.0 796.0,210.0 796.0,256.0 930.0,256.0" fill="none" stroke="#8bc34a" stroke-width="1.8" stroke-linejoin="round" marker-end="url(#arr)"/>
<polyline points="280.0,153.7 422.9,153.7 422.9,77.5 398.9,77.5 398.9,165.5 554.0,165.5 554.0,280.0 664.0,280.0 664.0,344.0 812.0,344.0 812.0,394.0 930.0,394.0" fill="none" stroke="#ff5722" stroke-width="1.8" stroke-linejoin="round" marker-end="url(#arr)"/>
<polyline points="280.0,256.0 382.4,256.0 382.4,106.0 730.0,106.0" fill="none" stroke="#e74c3c" stroke-width="1.8" stroke-linejoin="round" marker-end="url(#arr)"/>
<polyline points="280.0,252.0 362.7,252.0 362.7,141.5 578.0,141.5 578.0,256.0 730.0,256.0" fill="none" stroke="#3498db" stroke-width="1.8" stroke-linejoin="round" marker-end="url(#arr)"/>
<polyline points="280.0,260.0 370.7,260.0 370.7,213.5 506.0,213.5 506.0,328.0 596.0,328.0 596.0,348.0 557.4,348.0 557.4,418.0 730.0,418.0" fill="none" stroke="#2ecc71" stroke-width="1.8" stroke-linejoin="round" marker-end="url(#arr)"/>
<polyline points="280.0,256.0 382.4,256.0 382.4,60.0 796.0,60.0 796.0,106.0 930.0,106.0" fill="none" stroke="#f39c12" stroke-width="1.8" stroke-linejoin="round" marker-end="url(#arr)"/>
<polyline points="280.0,244.0 362.7,244.0 362.7,109.5 612.0,109.5 612.0,222.0 828.0,222.0 828.0,260.0 930.0,260.0" fill="none" stroke="#9b59b6" stroke-width="1.8" stroke-linejoin="round" marker-end="url(#arr)"/>
<polyline points="291.2,256.0 291.2,360.0 244.0,360.0 244.0,436.0 442.0,436.0 442.0,500.0 312.0,500.0 312.0,540.0 796.0,540.0 796.0,418.0 930.0,418.0" fill="none" stroke="#1abc9c" stroke-width="1.8" stroke-linejoin="round" marker-end="url(#arr)"/>
<polyline points="280.0,412.0 370.0,412.0 370.0,362.0 386.7,362.0 386.7,129.7 730.0,129.7" fill="none" stroke="#e67e22" stroke-width="1.8" stroke-linejoin="round" marker-end="url(#arr)"/>
<polyline points="280.0,428.0 386.0,428.0 386.0,370.0 394.7,370.0 394.7,157.5 562.0,157.5 562.0,272.0 730.0,272.0" fill="none" stroke="#34495e" stroke-width="1.8" stroke-linejoin="round" marker-end="url(#arr)"/>
<polyline points="280.0,406.0 370.1,406.0 370.1,452.0 337.3,452.0 337.3,492.0 600.6,492.0 600.6,406.0 730.0,406.0" fill="none" stroke="#e91e63" stroke-width="1.8" stroke-linejoin="round" marker-end="url(#arr)"/>
<polyline points="280.0,396.0 354.0,396.0 354.0,338.0 378.7,338.0 378.7,81.7 438.7,81.7 438.7,100.3 486.7,100.3 486.7,60.0 796.0,60.0 796.0,119.0 930.0,119.0" fill="none" stroke="#00bcd4" stroke-width="1.8" stroke-linejoin="round" marker-end="url(#arr)"/>
<polyline points="280.0,452.0 426.0,452.0 426.0,484.0 336.0,484.0 336.0,516.0 604.0,516.0 604.0,386.0 640.0,386.0 640.0,310.0 804.0,310.0 804.0,276.0 930.0,276.0" fill="none" stroke="#8bc34a" stroke-width="1.8" stroke-linejoin="round" marker-end="url(#arr)"/>
<polyline points="280.0,484.0 394.0,484.0 394.0,452.0 296.0,452.0 296.0,556.0 812.0,556.0 812.0,434.0 930.0,434.0" fill="none" stroke="#ff5722" stroke-width="1.8" stroke-linejoin="round" marker-end="url(#arr)"/>
<polyline points="80.0,106.0 80.0,256.0" fill="none" stroke="#e74c3c" stroke-width="1.8" stroke-linejoin="round" marker-end="url(#arr)"/>
<polyline points="80.0,256.0 80.0,406.0" fill="none" stroke="#3498db" stroke-width="1.8" stroke-linejoin="round" marker-end="url(#arr)"/>
<polyline points="80.0,380.0 220.0,380.0 220.0,344.0 274.1,344.0 274.1,106.0" fill="none" stroke="#2ecc71" stroke-width="1.8" stroke-linejoin="round" marker-end="url(#arr)"/>
<polyline points="282.1,106.0 282.1,256.0" fill="none" stroke="#f39c12" stroke-width="1.8" stroke-linejoin="round" marker-end="url(#arr)"/>
<polyline points="283.2,256.0 283.2,352.0 236.0,352.0 236.0,372.0 280.0,372.0" fill="none" stroke="#9b59b6" stroke-width="1.8" stroke-linejoin="round" marker-end="url(#arr)"/>
<polyline points="280.0,380.0 228.0,380.0 228.0,336.0 266.1,336.0 266.1,238.0 212.0,238.0 212.0,145.7 80.0,145.7" fill="none" stroke="#1abc9c" stroke-width="1.8" stroke-linejoin="round" marker-end="url(#arr)"/>
<polyline points="730.0,106.0 730.0,256.0" fill="none" stroke="#e67e22" stroke-width="1.8" stroke-linejoin="round" marker-end="url(#arr)"/>
<polyline points="730.0,256.0 730.0,406.0" fill="none" stroke="#34495e" stroke-width="1.8" stroke-linejoin="round" marker-end="url(#arr)"/>
<polyline points="730.0,378.0 864.0,378.0 864.0,127.0 930.0,127.0" fill="none" stroke="#e91e63" stroke-width="1.8" stroke-linejoin="round" marker-end="url(#arr)"/>
<polyline points="930.0,106.0 930.0,256.0" fill="none" stroke="#00bcd4" stroke-width="1.8" stroke-linejoin="round" marker-end="url(#arr)"/>
<polyline points="930.0,256.0 930.0,406.0" fill="none" stroke="#8bc34a" stroke-width="1.8" stroke-linejoin="round" marker-end="url(#arr)"/>
<polyline points="930.0,386.0 820.0,386.0 820.0,127.0 730.0,127.0" fill="none" stroke="#ff5722" stroke-width="1.8" stroke-linejoin="round" marker-end="url(#arr)"/>
<rect x="14.0" y="60.0" width="132.0" height="92.0" rx="2" fill="none" stroke="#7fb3d3" stroke-width="1" opacity="0.5" stroke-dasharray="3,2"/>
<rect x="20.0" y="66.0" width="120.0" height="80.0" rx="2" fill="#d0e4f7" stroke="#5b9bd5" stroke-width="1.5" opacity="1.0" />
<text x="80.0" y="109.0" font-size="8" fill="#1a5276" text-anchor="middle">0</text>
<rect x="14.0" y="210.0" width="132.0" height="92.0" rx="2" fill="none" stroke="#7fb3d3" stroke-width="1" opacity="0.5" stroke-dasharray="3,2"/>
<rect x="20.0" y="216.0" width="120.0" height="80.0" rx="2" fill="#d0e4f7" stroke="#5b9bd5" stroke-width="1.5" opacity="1.0" />
<text x="80.0" y="259.0" font-size="8" fill="#1a5276" text-anchor="middle">1</text>
<rect x="14.0" y="360.0" width="132.0" height="92.0" rx="2" fill="none" stroke="#7fb3d3" stroke-width="1" opacity="0.5" stroke-dasharray="3,2"/>
<rect x="20.0" y="366.0" width="120.0" height="80.0" rx="2" fill="#d0e4f7" stroke="#5b9bd5" stroke-width="1.5" opacity="1.0" />
<text x="80.0" y="409.0" font-size="8" fill="#1a5276" text-anchor="middle">2</text>
<rect x="214.0" y="60.0" width="132.0" height="92.0" rx="2" fill="none" stroke="#7fb3d3" stroke-width="1" opacity="0.5" stroke-dasharray="3,2"/>
<rect x="220.0" y="66.0" width="120.0" height="80.0" rx="2" fill="#d0e4f7" stroke="#5b9bd5" stroke-width="1.5" opacity="1.0" />
<text x="280.0" y="109.0" font-size="8" fill="#1a5276" text-anchor="middle">3</text>
<rect x="214.0" y="210.0" width="132.0" height="92.0" rx="2" fill="none" stroke="#7fb3d3" stroke-width="1" opacity="0.5" stroke-dasharray="3,2"/>
<rect x="220.0" y="216.0" width="120.0" height="80.0" rx="2" fill="#d0e4f7" stroke="#5b9bd5" stroke-width="1.5" opacity="1.0" />
<text x="280.0" y="259.0" font-size="8" fill="#1a5276" text-anchor="middle">4</text>
<rect x="214.0" y="360.0" width="132.0" height="92.0" rx="2" fill="none" stroke="#7fb3d3" stroke-width="1" opacity="0.5" stroke-dasharray="3,2"/>
<rect x="220.0" y="366.0" width="120.0" height="80.0" rx="2" fill="#d0e4f7" stroke="#5b9bd5" stroke-width="1.5" opacity="1.0" />
<text x="280.0" y="409.0" font-size="8" fill="#1a5276" text-anchor="middle">5</text>
<rect x="664.0" y="60.0" width="132.0" height="92.0" rx="2" fill="none" stroke="#7fb3d3" stroke-width="1" opacity="0.5" stroke-dasharray="3,2"/>
<rect x="670.0" y="66.0" width="120.0" height="80.0" rx="2" fill="#d0e4f7" stroke="#5b9bd5" stroke-width="1.5" opacity="1.0" />
<text x="730.0" y="109.0" font-size="8" fill="#1a5276" text-anchor="middle">6</text>
<rect x="664.0" y="210.0" width="132.0" height="92.0" rx="2" fill="none" stroke="#7fb3d3" stroke-width="1" opacity="0.5" stroke-dasharray="3,2"/>
<rect x="670.0" y="216.0" width="120.0" height="80.0" rx="2" fill="#d0e4f7" stroke="#5b9bd5" stroke-width="1.5" opacity="1.0" />
<text x="730.0" y="259.0" font-size="8" fill="#1a5276" text-anchor="middle">7</text>
<rect x="664.0" y="360.0" width="132.0" height="92.0" rx="2" fill="none" stroke="#7fb3d3" stroke-width="1" opacity="0.5" stroke-dasharray="3,2"/>
<rect x="670.0" y="366.0" width="120.0" height="80.0" rx="2" fill="#d0e4f7" stroke="#5b9bd5" stroke-width="1.5" opacity="1.0" />
<text x="730.0" y="409.0" font-size="8" fill="#1a5276" text-anchor="middle">8</text>
<rect x="864.0" y="60.0" width="132.0" height="92.0" rx="2" fill="none" stroke="#7fb3d3" stroke-width="1" opacity="0.5" stroke-dasharray="3,2"/>
<rect x="870.0" y="66.0" width="120.0" height="80.0" rx="2" fill="#d0e4f7" stroke="#5b9bd5" stroke-width="1.5" opacity="1.0" />
<text x="930.0" y="109.0" font-size="8" fill="#1a5276" text-anchor="middle">9</text>
<rect x="864.0" y="210.0" width="132.0" height="92.0" rx="2" fill="none" stroke="#7fb3d3" stroke-width="1" opacity="0.5" stroke-dasharray="3,2"/>
<rect x="870.0" y="216.0" width="120.0" height="80.0" rx="2" fill="#d0e4f7" stroke="#5b9bd5" stroke-width="1.5" opacity="1.0" />
<text x="930.0" y="259.0" font-size="8" fill="#1a5276" text-anchor="middle">10</text>
<rect x="864.0" y="360.0" width="132.0" height="92.0" rx="2" fill="none" stroke="#7fb3d3" stroke-width="1" opacity="0.5" stroke-dasharray="3,2"/>
<rect x="870.0" y="366.0" width="120.0" height="80.0" rx="2" fill="#d0e4f7" stroke="#5b9bd5" stroke-width="1.5" opacity="1.0" />
<text x="930.0" y="409.0" font-size="8" fill="#1a5276" text-anchor="middle">11</text>
<polygon points="310.0,90.0 244.8,198.9 375.2,198.9" fill="#deeaf7" stroke="#7fb3d3" stroke-width="1" opacity="0.6" stroke-dasharray="3,2"/>
<polygon points="310.0,96.0 250.0,196.0 370.0,196.0" fill="#d0e4f7" stroke="#5b9bd5" stroke-width="1.5" opacity="1.0" />
<text x="310.0" y="165.7" font-size="8" fill="#1a5276" text-anchor="middle">12</text>
<polygon points="310.0,260.0 244.8,368.9 375.2,368.9" fill="#deeaf7" stroke="#7fb3d3" stroke-width="1" opacity="0.6" stroke-dasharray="3,2"/>
<polygon points="310.0,266.0 250.0,366.0 370.0,366.0" fill="#d0e4f7" stroke="#5b9bd5" stroke-width="1.5" opacity="1.0" />
<text x="310.0" y="335.7" font-size="8" fill="#1a5276" text-anchor="middle">13</text>
<polygon points="530.0,140.0 464.8,248.9 595.2,248.9" fill="#deeaf7" stroke="#7fb3d3" stroke-width="1" opacity="0.6" stroke-dasharray="3,2"/>
<polygon points="530.0,146.0 470.0,246.0 590.0,246.0" fill="#d0e4f7" stroke="#5b9bd5" stroke-width="1.5" opacity="1.0" />
<text x="530.0" y="215.7" font-size="8" fill="#1a5276" text-anchor="middle">14</text>
<polygon points="530.0,300.0 464.8,408.9 595.2,408.9" fill="#deeaf7" stroke="#7fb3d3" stroke-width="1" opacity="0.6" stroke-dasharray="3,2"/>
<polygon points="530.0,306.0 470.0,406.0 590.0,406.0" fill="#d0e4f7" stroke="#5b9bd5" stroke-width="1.5" opacity="1.0" />
<text x="530.0" y="375.7" font-size="8" fill="#1a5276" text-anchor="middle">15</text>
<polygon points="404.2,114.6 437.0,80.8 493.0,80.8 525.8,114.6 492.4,191.5 437.6,191.5" fill="#deeaf7" stroke="#7fb3d3" stroke-width="1" opacity="0.6" stroke-dasharray="3,2"/>
<polygon points="410.0,116.0 440.0,86.0 490.0,86.0 520.0,116.0 490.0,186.0 440.0,186.0" fill="#d0e4f7" stroke="#5b9bd5" stroke-width="1.5" opacity="1.0" />
<text x="465.0" y="132.3" font-size="8" fill="#1a5276" text-anchor="middle">16</text>
<polygon points="404.2,274.6 437.0,240.8 493.0,240.8 525.8,274.6 492.4,351.5 437.6,351.5" fill="#deeaf7" stroke="#7fb3d3" stroke-width="1" opacity="0.6" stroke-dasharray="3,2"/>
<polygon points="410.0,276.0 440.0,246.0 490.0,246.0 520.0,276.0 490.0,346.0 440.0,346.0" fill="#d0e4f7" stroke="#5b9bd5" stroke-width="1.5" opacity="1.0" />
<text x="465.0" y="292.3" font-size="8" fill="#1a5276" text-anchor="middle">17</text>
<polygon points="384.1,184.9 416.5,156.1 473.5,156.1 505.9,184.9 472.9,246.2 417.1,246.2" fill="#deeaf7" stroke="#7fb3d3" stroke-width="1" opacity="0.6" stroke-dasharray="3,2"/>
<polygon points="390.0,186.0 420.0,161.0 470.0,161.0 500.0,186.0 470.0,241.0 420.0,241.0" fill="#d0e4f7" stroke="#5b9bd5" stroke-width="1.5" opacity="1.0" />
<text x="445.0" y="199.0" font-size="8" fill="#1a5276" text-anchor="middle">18</text>
<polygon points="440.0,370.0 344.4,488.3 535.6,488.3" fill="#deeaf7" stroke="#7fb3d3" stroke-width="1" opacity="0.6" stroke-dasharray="3,2"/>
<polygon points="440.0,376.0 350.0,486.0 530.0,486.0" fill="#d0e4f7" stroke="#5b9bd5" stroke-width="1.5" opacity="1.0" />
<text x="440.0" y="452.3" font-size="8" fill="#1a5276" text-anchor="middle">19</text>
<circle cx="80.0" cy="106.0" r="3.5" fill="#e74c3c" stroke="#fff" stroke-width="1"/>
<circle cx="730.0" cy="106.0" r="3.5" fill="#e74c3c" stroke="#e74c3c" stroke-width="1.5"/>
<circle cx="80.0" cy="106.0" r="3.5" fill="#3498db" stroke="#fff" stroke-width="1"/>
<circle cx="730.0" cy="256.0" r="3.5" fill="#3498db" stroke="#3498db" stroke-width="1.5"/>
<circle cx="80.0" cy="106.0" r="3.5" fill="#2ecc71" stroke="#fff" stroke-width="1"/>
<circle cx="730.0" cy="406.0" r="3.5" fill="#2ecc71" stroke="#2ecc71" stroke-width="1.5"/>
<circle cx="80.0" cy="106.0" r="3.5" fill="#f39c12" stroke="#fff" stroke-width="1"/>
<circle cx="930.0" cy="106.0" r="3.5" fill="#f39c12" stroke="#f39c12" stroke-width="1.5"/>
<circle cx="80.0" cy="106.0" r="3.5" fill="#9b59b6" stroke="#fff" stroke-width="1"/>
<circle cx="930.0" cy="256.0" r="3.5" fill="#9b59b6" stroke="#9b59b6" stroke-width="1.5"/>
<circle cx="80.0" cy="106.0" r="3.5" fill="#1abc9c" stroke="#fff" stroke-width="1"/>
<circle cx="930.0" cy="406.0" r="3.5" fill="#1abc9c" stroke="#1abc9c" stroke-width="1.5"/>
<circle cx="80.0" cy="256.0" r="3.5" fill="#e67e22" stroke="#fff" stroke-width="1"/>
<circle cx="730.0" cy="106.0" r="3.5" fill="#e67e22" stroke="#e67e22" stroke-width="1.5"/>
<circle cx="80.0" cy="256.0" r="3.5" fill="#34495e" stroke="#fff" stroke-width="1"/>
<circle cx="730.0" cy="256.0" r="3.5" fill="#34495e" stroke="#34495e" stroke-width="1.5"/>
<circle cx="80.0" cy="256.0" r="3.5" fill="#e91e63" stroke="#fff" stroke-width="1"/>
<circle cx="730.0" cy="406.0" r="3.5" fill="#e91e63" stroke="#e91e63" stroke-width="1.5"/>
<circle cx="80.0" cy="256.0" r="3.5" fill="#00bcd4" stroke="#fff" stroke-width="1"/>
<circle cx="930.0" cy="106.0" r="3.5" fill="#00bcd4" stroke="#00bcd4" stroke-width="1.5"/>
<circle cx="80.0" cy="256.0" r="3.5" fill="#8bc34a" stroke="#fff" stroke-width="1"/>
<circle cx="930.0" cy="256.0" r="3.5" fill="#8bc34a" stroke="#8bc34a" stroke-width="1.5"/>
<circle cx="80.0" cy="256.0" r="3.5" fill="#ff5722" stroke="#fff" stroke-width="1"/>
<circle cx="930.0" cy="406.0" r="3.5" fill="#ff5722" stroke="#ff5722" stroke-width="1.5"/>
<circle cx="80.0" cy="406.0" r="3.5" fill="#e74c3c" stroke="#fff" stroke-width="1"/>
<circle cx="730.0" cy="106.0" r="3.5" fill="#e74c3c" stroke="#e74c3c" stroke-width="1.5"/>
<circle cx="80.0" cy="406.0" r="3.5" fill="#3498db" stroke="#fff" stroke-width="1"/>
<circle cx="730.0" cy="256.0" r="3.5" fill="#3498db" stroke="#3498db" stroke-width="1.5"/>
<circle cx="80.0" cy="406.0" r="3.5" fill="#2ecc71" stroke="#fff" stroke-width="1"/>
<circle cx="730.0" cy="406.0" r="3.5" fill="#2ecc71" stroke="#2ecc71" stroke-width="1.5"/>
<circle cx="80.0" cy="406.0" r="3.5" fill="#f39c12" stroke="#fff" stroke-width="1"/>
<circle cx="930.0" cy="106.0" r="3.5" fill="#f39c12" stroke="#f39c12" stroke-width="1.5"/>
<circle cx="80.0" cy="406.0" r="3.5" fill="#9b59b6" stroke="#fff" stroke-width="1"/>
<circle cx="930.0" cy="256.0" r="3.5" fill="#9b59b6" stroke="#9b59b6" stroke-width="1.5"/>
<circle cx="80.0" cy="406.0" r="3.5" fill="#1abc9c" stroke="#fff" stroke-width="1"/>
<circle cx="930.0" cy="406.0" r="3.5" fill="#1abc9c" stroke="#1abc9c" stroke-width="1.5"/>
<circle cx="280.0" cy="106.0" r="3.5" fill="#e67e22" stroke="#fff" stroke-width="1"/>
<circle cx="730.0" cy="106.0" r="3.5" fill="#e67e22" stroke="#e67e22" stroke-width="1.5"/>
<circle cx="280.0" cy="106.0" r="3.5" fill="#34495e" stroke="#fff" stroke-width="1"/>
<circle cx="730.0" cy="256.0" r="3.5" fill="#34495e" stroke="#34495e" stroke-width="1.5"/>
<circle cx="280.0" cy="106.0" r="3.5" fill="#e91e63" stroke="#fff" stroke-width="1"/>
<circle cx="730.0" cy="406.0" r="3.5" fill="#e91e63" stroke="#e91e63" stroke-width="1.5"/>
<circle cx="280.0" cy="106.0" r="3.5" fill="#00bcd4" stroke="#fff" stroke-width="1"/>
<circle cx="930.0" cy="106.0" r="3.5" fill="#00bcd4" stroke="#00bcd4" stroke-width="1.5"/>
<circle cx="280.0" cy="106.0" r="3.5" fill="#8bc34a" stroke="#fff" stroke-width="1"/>
<circle cx="930.0" cy="256.0" r="3.5" fill="#8bc34a" stroke="#8bc34a" stroke-width="1.5"/>
<circle cx="280.0" cy="106.0" r="3.5" fill="#ff5722" stroke="#fff" stroke-width="1"/>
<circle cx="930.0" cy="406.0" r="3.5" fill="#ff5722" stroke="#ff5722" stroke-width="1.5"/>
<circle cx="280.0" cy="256.0" r="3.5" fill="#e74c3c" stroke="#fff" stroke-width="1"/>
<circle cx="730.0" cy="106.0" r="3.5" fill="#e74c3c" stroke="#e74c3c" stroke-width="1.5"/>
<circle cx="280.0" cy="256.0" r="3.5" fill="#3498db" stroke="#fff" stroke-width="1"/>
<circle cx="730.0" cy="256.0" r="3.5" fill="#3498db" stroke="#3498db" stroke-width="1.5"/>
<circle cx="280.0" cy="256.0" r="3.5" fill="#2ecc71" stroke="#fff" stroke-width="1"/>
<circle cx="730.0" cy="406.0" r="3.5" fill="#2ecc71" stroke="#2ecc71" stroke-width="1.5"/>
<circle cx="280.0" cy="256.0" r="3.5" fill="#f39c12" stroke="#fff" stroke-width="1"/>
<circle cx="930.0" cy="106.0" r="3.5" fill="#f39c12" stroke="#f39c12" stroke-width="1.5"/>
<circle cx="280.0" cy="256.0" r="3.5" fill="#9b59b6" stroke="#fff" stroke-width="1"/>
<circle cx="930.0" cy="256.0" r="3.5" fill="#9b59b6" stroke="#9b59b6" stroke-width="1.5"/>
<circle cx="280.0" cy="256.0" r="3.5" fill="#1abc9c" stroke="#fff" stroke-width="1"/>
<circle cx="930.0" cy="406.0" r="3.5" fill="#1abc9c" stroke="#1abc9c" stroke-width="1.5"/>
<circle cx="280.0" cy="406.0" r="3.5" fill="#e67e22" stroke="#fff" stroke-width="1"/>
<circle cx="730.0" cy="106.0" r="3.5" fill="#e67e22" stroke="#e67e22" stroke-width="1.5"/>
<circle cx="280.0" cy="406.0" r="3.5" fill="#34495e" stroke="#fff" stroke-width="1"/>
<circle cx="730.0" cy="256.0" r="3.5" fill="#34495e" stroke="#34495e" stroke-width="1.5"/>
<circle cx="280.0" cy="406.0" r="3.5" fill="#e91e63" stroke="#fff" stroke-width="1"/>
<circle cx="730.0" cy="406.0" r="3.5" fill="#e91e63" stroke="#e91e63" stroke-width="1.5"/>
<circle cx="280.0" cy="406.0" r="3.5" fill="#00bcd4" stroke="#fff" stroke-width="1"/>
<circle cx="930.0" cy="106.0" r="3.5" fill="#00bcd4" stroke="#00bcd4" stroke-width="1.5"/>
<circle cx="280.0" cy="406.0" r="3.5" fill="#8bc34a" stroke="#fff" stroke-width="1"/>
<circle cx="930.0" cy="256.0" r="3.5" fill="#8bc34a" stroke="#8bc34a" stroke-width="1.5"/>
<circle cx="280.0" cy="406.0" r="3.5" fill="#ff5722" stroke="#fff" stroke-width="1"/>
<circle cx="930.0" cy="406.0" r="3.5" fill="#ff5722" stroke="#ff5722" stroke-width="1.5"/>
<circle cx="80.0" cy="106.0" r="3.5" fill="#e74c3c" stroke="#fff" stroke-width="1"/>
<circle cx="80.0" cy="256.0" r="3.5" fill="#e74c3c" stroke="#e74c3c" stroke-width="1.5"/>
<circle cx="80.0" cy="256.0" r="3.5" fill="#3498db" stroke="#fff" stroke-width="1"/>
<circle cx="80.0" cy="406.0" r="3.5" fill="#3498db" stroke="#3498db" stroke-width="1.5"/>
<circle cx="80.0" cy="406.0" r="3.5" fill="#2ecc71" stroke="#fff" stroke-width="1"/>
<circle cx="280.0" cy="106.0" r="3.5" fill="#2ecc71" stroke="#2ecc71" stroke-width="1.5"/>
<circle cx="280.0" cy="106.0" r="3.5" fill="#f39c12" stroke="#fff" stroke-width="1"/>
<circle cx="280.0" cy="256.0" r="3.5" fill="#f39c12" stroke="#f39c12" stroke-width="1.5"/>
<circle cx="280.0" cy="256.0" r="3.5" fill="#9b59b6" stroke="#fff" stroke-width="1"/>
<circle cx="280.0" cy="406.0" r="3.5" fill="#9b59b6" stroke="#9b59b6" stroke-width="1.5"/>
<circle cx="280.0" cy="406.0" r="3.5" fill="#1abc9c" stroke="#fff" stroke-width="1"/>
<circle cx="80.0" cy="106.0" r="3.5" fill="#1abc9c" stroke="#1abc9c" stroke-width="1.5"/>
<circle cx="730.0" cy="106.0" r="3.5" fill="#e67e22" stroke="#fff" stroke-width="1"/>
<circle cx="730.0" cy="256.0" r="3.5" fill="#e67e22" stroke="#e67e22" stroke-width="1.5"/>
<circle cx="730.0" cy="256.0" r="3.5" fill="#34495e" stroke="#fff" stroke-width="1"/>
<circle cx="730.0" cy="406.0" r="3.5" fill="#34495e" stroke="#34495e" stroke-width="1.5"/>
<circle cx="730.0" cy="406.0" r="3.5" fill="#e91e63" stroke="#fff" stroke-width="1"/>
<circle cx="930.0" cy="106.0" r="3.5" fill="#e91e63" stroke="#e91e63" stroke-width="1.5"/>
<circle cx="930.0" cy="106.0" r="3.5" fill="#00bcd4" stroke="#fff" stroke-width="1"/>
<circle cx="930.0" cy="256.0" r="3.5" fill="#00bcd4" stroke="#00bcd4" stroke-width="1.5"/>
<circle cx="930.0" cy="256.0" r="3.5" fill="#8bc34a" stroke="#fff" stroke-width="1"/>
<circle cx="930.0" cy="406.0" r="3.5" fill="#8bc34a" stroke="#8bc34a" stroke-width="1.5"/>
<circle cx="930.0" cy="406.0" r="3.5" fill="#ff5722" stroke="#fff" stroke-width="1"/>
<circle cx="730.0" cy="106.0" r="3.5" fill="#ff5722" stroke="#ff5722" stroke-width="1.5"/>
<text x="6" y="14" font-size="11" fill="#555" font-family="monospace">polygon: 20 obstacles, 48 edges [routed]</text>
</svg>
