<svg xmlns="http://www.w3.org/2000/svg" width="640" height="240" style="font-family:monospace">
<rect width="640" height="240" fill="#f8f9fa"/>
<defs>
  <marker id="arr" markerWidth="6" markerHeight="6"           refX="5" refY="3" orient="auto">
    <path d="M0,0 L6,3 L0,6 Z" fill="context-stroke"/>
  </marker>
</defs>
<line x1="-30" y1="0" x2="-30" y2="240" stroke="#e0e0e0" stroke-width="0.5"/>
<line x1="20" y1="0" x2="20" y2="240" stroke="#e0e0e0" stroke-width="0.5"/>
<line x1="70" y1="0" x2="70" y2="240" stroke="#e0e0e0" stroke-width="0.5"/>
<line x1="120" y1="0" x2="120" y2="240" stroke="#e0e0e0" stroke-width="0.5"/>
<line x1="170" y1="0" x2="170" y2="240" stroke="#e0e0e0" stroke-width="0.5"/>
<line x1="220" y1="0" x2="220" y2="240" stroke="#e0e0e0" stroke-width="0.5"/>
<line x1="270" y1="0" x2="270" y2="240" stroke="#e0e0e0" stroke-width="0.5"/>
<line x1="320" y1="0" x2="320" y2="240" stroke="#e0e0e0" stroke-width="0.5"/>
<line x1="370" y1="0" x2="370" y2="240" stroke="#e0e0e0" stroke-width="0.5"/>
<line x1="420" y1="0" x2="420" y2="240" stroke="#e0e0e0" stroke-width="0.5"/>
<line x1="470" y1="0" x2="470" y2="240" stroke="#e0e0e0" stroke-width="0.5"/>
<line x1="520" y1="0" x2="520" y2="240" stroke="#e0e0e0" stroke-width="0.5"/>
<line x1="570" y1="0" x2="570" y2="240" stroke="#e0e0e0" stroke-width="0.5"/>
<line x1="620" y1="0" x2="620" y2="240" stroke="#e0e0e0" stroke-width="0.5"/>
<line x1="0" y1="-30" x2="640" y2="-30" stroke="#e0e0e0" stroke-width="0.5"/>
<line x1="0" y1="20" x2="640" y2="20" stroke="#e0e0e0" stroke-width="0.5"/>
<line x1="0" y1="70" x2="640" y2="70" stroke="#e0e0e0" stroke-width="0.5"/>
<line x1="0" y1="120" x2="640" y2="120" stroke="#e0e0e0" stroke-width="0.5"/>
<line x1="0" y1="170" x2="640" y2="170" stroke="#e0e0e0" stroke-width="0.5"/>
<line x1="0" y1="220" x2="640" y2="220" stroke="#e0e0e0" stroke-width="0.5"/>
<polyline points="70.0,45.0 320.0,45.0" fill="none" stroke="#e74c3c" stroke-width="1.8" stroke-linejoin="round" marker-end="url(#arr)"/>
<polyline points="320.0,45.0 570.0,45.0" fill="none" stroke="#3498db" stroke-width="1.8" stroke-linejoin="round" marker-end="url(#arr)"/>
<polyline points="70.0,45.0 70.0,195.0 195.0,195.0" fill="none" stroke="#2ecc71" stroke-width="1.8" stroke-linejoin="round" marker-end="url(#arr)"/>
<polyline points="320.0,45.0 320.0,195.0 445.0,195.0" fill="none" stroke="#f39c12" stroke-width="1.8" stroke-linejoin="round" marker-end="url(#arr)"/>
<rect x="16.0" y="16.0" width="108.0" height="58.0" rx="2" fill="none" stroke="#7fb3d3" stroke-width="1" opacity="0.5" stroke-dasharray="3,2"/>
<rect x="20.0" y="20.0" width="100.0" height="50.0" rx="2" fill="#d0e4f7" stroke="#5b9bd5" stroke-width="1.5" opacity="1.0" />
<text x="70.0" y="48.0" font-size="8" fill="#1a5276" text-anchor="middle">0</text>
<rect x="266.0" y="16.0" width="108.0" height="58.0" rx="2" fill="none" stroke="#7fb3d3" stroke-width="1" opacity="0.5" stroke-dasharray="3,2"/>
<rect x="270.0" y="20.0" width="100.0" height="50.0" rx="2" fill="#d0e4f7" stroke="#5b9bd5" stroke-width="1.5" opacity="1.0" />
<text x="320.0" y="48.0" font-size="8" fill="#1a5276" text-anchor="middle">1</text>
<rect x="516.0" y="16.0" width="108.0" height="58.0" rx="2" fill="none" stroke="#7fb3d3" stroke-width="1" opacity="0.5" stroke-dasharray="3,2"/>
<rect x="520.0" y="20.0" width="100.0" height="50.0" rx="2" fill="#d0e4f7" stroke="#5b9bd5" stroke-width="1.5" opacity="1.0" />
<text x="570.0" y="48.0" font-size="8" fill="#1a5276" text-anchor="middle">2</text>
<rect x="141.0" y="166.0" width="108.0" height="58.0" rx="2" fill="none" stroke="#7fb3d3" stroke-width="1" opacity="0.5" stroke-dasharray="3,2"/>
<rect x="145.0" y="170.0" width="100.0" height="50.0" rx="2" fill="#d0e4f7" stroke="#5b9bd5" stroke-width="1.5" opacity="1.0" />
<text x="195.0" y="198.0" font-size="8" fill="#1a5276" text-anchor="middle">3</text>
<rect x="391.0" y="166.0" width="108.0" height="58.0" rx="2" fill="none" stroke="#7fb3d3" stroke-width="1" opacity="0.5" stroke-dasharray="3,2"/>
<rect x="395.0" y="170.0" width="100.0" height="50.0" rx="2" fill="#d0e4f7" stroke="#5b9bd5" stroke-width="1.5" opacity="1.0" />
<text x="445.0" y="198.0" font-size="8" fill="#1a5276" text-anchor="middle">4</text>
<circle cx="70.0" cy="45.0" r="3.5" fill="#e74c3c" stroke="#fff" stroke-width="1"/>
<circle cx="320.0" cy="45.0" r="3.5" fill="#e74c3c" stroke="#e74c3c" stroke-width="1.5"/>
<circle cx="320.0" cy="45.0" r="3.5" fill="#3498db" stroke="#fff" stroke-width="1"/>
<circle cx="570.0" cy="45.0" r="3.5" fill="#3498db" stroke="#3498db" stroke-width="1.5"/>
<circle cx="70.0" cy="45.0" r="3.5" fill="#2ecc71" stroke="#fff" stroke-width="1"/>
<circle cx="195.0" cy="195.0" r="3.5" fill="#2ecc71" stroke="#2ecc71" stroke-width="1.5"/>
<circle cx="320.0" cy="45.0" r="3.5" fill="#f39c12" stroke="#fff" stroke-width="1"/>
<circle cx="445.0" cy="195.0" r="3.5" fill="#f39c12" stroke="#f39c12" stroke-width="1.5"/>
<text x="6" y="14" font-size="11" fill="#555" font-family="monospace">small: 5 obstacles, 4 edges [routed]</text>
</svg>
